<svg id="Layer_2" data-name="Layer 2" xmlns="http://www.w3.org/2000/svg" viewBox="0 0 329.13 63.97"><defs><style>.cls-1{fill:#231f20;}.cls-2{fill:#e08f5f;}.cls-3{fill:#57799e;}.cls-4{fill:#d4bf4c;}.cls-5{fill:#5e3638;}.cls-6{fill:#9a8479;}.cls-7{fill:#d0c6b4;}.cls-8{fill:#375784;}.cls-9{fill:#4e7c71;}.cls-10{fill:#bfb5ca;}.cls-11{fill:#c4b16d;}.cls-12{fill:#a5c2e5;}.cls-13{fill:#55665a;}.cls-14{fill:#555458;}.cls-15{fill:#4e938a;}.cls-16{fill:#70919e;}.cls-17{fill:#394e4a;}.cls-18{fill:#b36f3e;}.cls-19{fill:#817593;}.cls-20{fill:#957d98;}.cls-21{fill:#e36c33;}.cls-22{fill:#cf4d32;}.cls-23{fill:#2b388f;}.cls-24{fill:#347170;}</style></defs><title>logo-update</title><path class="cls-1" d="M.15,57.15H2.9V58H1.06v2H2.75v.8H1.06v3.1H.15Z" transform="translate(-0.08 -0.02)"/><path class="cls-1" d="M5.24,63.87h-.9V57.15H5.43c1.4,0,2,.45,2,1.75,0,1-.43,1.56-1.27,1.66l1.6,3.31h-1L5.27,60.59h0Zm.28-3.8c.79,0,1-.35,1-1.17s-.28-1-1-1H5.24v2.13Z" transform="translate(-0.08 -0.02)"/><path class="cls-1" d="M10.71,57.07c1.42,0,1.91,1.09,1.91,3.44S12.13,64,10.71,64,8.8,62.87,8.8,60.51,9.3,57.07,10.71,57.07Zm0,6c.81,0,1-.84,1-2.6s-.2-2.6-1-2.6-1,.83-1,2.6S10,63.1,10.72,63.1Z" transform="translate(-0.08 -0.02)"/><path class="cls-1" d="M14.49,57.15h.82l.92,4.66.93-4.66H18l.58,6.72H17.7l-.28-4.71-.89,4.71h-.62L15,59.16l-.27,4.71h-.83Z" transform="translate(-0.08 -0.02)"/><path class="cls-1" d="M25.05,54.78H26.2l2.13,9.09H27.1l-.44-1.79H24.58l-.42,1.79H22.93Zm-.24,6.28h1.64l-.82-3.94Z" transform="translate(-0.08 -0.02)"/><path class="cls-1" d="M30,54.78h1.14l2.41,6.31V54.78h1.16v9.09H33.56l-2.4-6.36v6.36H30Z" transform="translate(-0.08 -0.02)"/><path class="cls-1" d="M37.08,54.78h1.13l2.41,6.31V54.78h1.16v9.09H40.64l-2.4-6.36v6.36H37.08Z" transform="translate(-0.08 -0.02)"/><path class="cls-1" d="M44.09,54.78H45.3v6.77c0,.87.38,1.27,1.19,1.27s1.18-.4,1.18-1.27V54.78h1.22v6.67c0,1.74-.73,2.53-2.4,2.53s-2.4-.79-2.4-2.53Z" transform="translate(-0.08 -0.02)"/><path class="cls-1" d="M52.62,54.78h1.15l2.13,9.09H54.66l-.43-1.79H52.15l-.42,1.79H50.49Zm-.24,6.28H54l-.82-3.94Z" transform="translate(-0.08 -0.02)"/><path class="cls-1" d="M57.58,54.78H58.8v7.95h2.63v1.14H57.58Z" transform="translate(-0.08 -0.02)"/><path class="cls-1" d="M67.6,63.87H66.38V54.78h1.48c1.9,0,2.73.61,2.73,2.37,0,1.35-.58,2.1-1.71,2.24L71,63.87H69.72l-2.08-4.44h0ZM68,58.73c1.06,0,1.37-.47,1.37-1.58s-.38-1.3-1.4-1.3H67.6v2.88Z" transform="translate(-0.08 -0.02)"/><path class="cls-1" d="M72.65,54.78h3.64v1.09H73.88v2.71h2.2v1.08h-2.2v3.07h2.41v1.14H72.65Z" transform="translate(-0.08 -0.02)"/><path class="cls-1" d="M79.65,63.87l-2-9.09H78.9L80.17,61l1.28-6.17h1.24l-2,9.09Z" transform="translate(-0.08 -0.02)"/><path class="cls-1" d="M84.39,54.78h1.23v9.09H84.39Z" transform="translate(-0.08 -0.02)"/><path class="cls-1" d="M88,54.78h3.63v1.09H89.21v2.71h2.21v1.08H89.21v3.07h2.41v1.14H88Z" transform="translate(-0.08 -0.02)"/><path class="cls-1" d="M93.06,54.78h1.21L95.16,61l1-6.22h1L98.29,61l.87-6.22h1.21l-1.52,9.09h-1l-1.13-6.45-1.13,6.45h-1Z" transform="translate(-0.08 -0.02)"/><path class="cls-1" d="M103.4,62.8a1.13,1.13,0,0,0,1.23-1.2c0-.88-.6-1.29-1.49-2a3.09,3.09,0,0,1-1.46-2.51,2.29,2.29,0,0,1,2.27-2.4,3.31,3.31,0,0,1,1.6.41v1.22a2.37,2.37,0,0,0-1.37-.49,1.18,1.18,0,0,0-1.27,1.25c0,.84.62,1.27,1.53,2a3,3,0,0,1,1.43,2.54A2.3,2.3,0,0,1,103.49,64a3.28,3.28,0,0,1-1.58-.45V62.28A3,3,0,0,0,103.4,62.8Z" transform="translate(-0.08 -0.02)"/><path class="cls-1" d="M245.19,24.81l2,12.62c.09.47.25,2,.55,4.71.14-1.51.36-3.09.63-4.71l2.1-12.62H252l2.38,19.48H252.7l-1.31-12.76c-.08-.87-.22-2.27-.36-4.24-.16,1.89-.32,3.53-.57,4.92l-2,12.08h-1.53L245,31.72c-.17-1-.41-2.48-.58-4.43-.22,2.68-.33,4.21-.38,4.6l-1.42,12.4H241l2.62-19.48Z" transform="translate(-0.08 -0.02)"/><path class="cls-1" d="M262.21,24.81l4,19.48h-1.81l-.76-3.93h-4.46l-.68,3.93h-1.83l3.88-19.48Zm-2.78,14h3.85l-1.58-9.1c-.11-.63-.22-1.59-.31-2.9-.08,1-.19,2-.35,2.93Z" transform="translate(-0.08 -0.02)"/><path class="cls-1" d="M275.63,28.88c-.4-1.72-1.2-2.62-2.32-2.62-1.94,0-2.84,2.73-2.84,8.28s.71,8.36,2.81,8.36c1.59,0,2.25-1.39,2.25-4.21V35.74h-2.71V34.1h4.46v4.37c0,4.08-1.37,6.1-4.08,6.1-3.28,0-4.56-3.28-4.56-10s1.47-10,4.78-10c1.78,0,3.17,1.26,3.86,3.64Z" transform="translate(-0.08 -0.02)"/><path class="cls-1" d="M285.39,24.81l4,19.48h-1.81l-.76-3.93h-4.46l-.68,3.93h-1.83l3.88-19.48Zm-2.78,14h3.85l-1.59-9.1c-.11-.63-.21-1.59-.3-2.9-.08,1-.19,2-.35,2.93Z" transform="translate(-0.08 -0.02)"/><path class="cls-1" d="M291.82,26.42V24.81H299l-5.6,17.84h4.95v1.64h-7.22l5.63-17.87Z" transform="translate(-0.08 -0.02)"/><path class="cls-1" d="M302.5,24.81h1.78V44.29H302.5Z" transform="translate(-0.08 -0.02)"/><path class="cls-1" d="M311.09,24.81l4.4,13.34c.11.32.46,1.66,1.06,4.09a63.35,63.35,0,0,1-.41-7.35V24.81h1.53V44.29h-1.53l-4.29-13.11c-.46-1.43-.84-2.87-1.2-4.35a70.64,70.64,0,0,1,.44,7.3V44.29h-1.53V24.81Z" transform="translate(-0.08 -0.02)"/><path class="cls-1" d="M329.07,24.81v1.64h-4.34v7H329v1.59h-4.29v7.59h4.48v1.64H323V24.81Z" transform="translate(-0.08 -0.02)"/><rect class="cls-2" x="122.97" y="54" width="8.96" height="9.97"/><rect class="cls-3" x="114" y="54" width="8.96" height="9.97"/><rect class="cls-4" x="185.71" y="54" width="8.96" height="9.97"/><rect class="cls-5" x="176.75" y="54" width="8.96" height="9.97"/><rect class="cls-6" x="158.82" y="54" width="8.96" height="9.97"/><rect class="cls-7" x="167.79" y="54" width="8.96" height="9.97"/><rect class="cls-8" x="149.86" y="54" width="8.96" height="9.97"/><rect class="cls-9" x="140.9" y="54" width="8.96" height="9.97"/><rect class="cls-10" x="131.93" y="54" width="8.96" height="9.97"/><rect class="cls-11" x="230.53" y="54" width="8.96" height="9.97"/><rect class="cls-12" x="221.57" y="54" width="8.96" height="9.97"/><rect class="cls-13" x="212.61" y="54" width="8.96" height="9.97"/><rect class="cls-14" x="203.64" y="54" width="8.96" height="9.97"/><rect class="cls-15" x="194.68" y="54" width="8.96" height="9.97"/><rect class="cls-16" x="275.35" y="54" width="8.96" height="9.97"/><rect class="cls-17" x="266.39" y="54" width="8.96" height="9.97"/><rect class="cls-18" x="257.43" y="54" width="8.96" height="9.97"/><rect class="cls-19" x="248.46" y="54" width="8.96" height="9.97"/><rect class="cls-20" x="239.5" y="54" width="8.96" height="9.97"/><rect class="cls-21" x="320.17" y="54" width="8.96" height="9.97"/><rect class="cls-22" x="311.21" y="54" width="8.96" height="9.97"/><rect class="cls-2" x="302.24" y="54" width="8.96" height="9.97"/><rect class="cls-23" x="293.28" y="54" width="8.96" height="9.97"/><rect class="cls-24" x="284.32" y="54" width="8.96" height="9.97"/><path class="cls-1" d="M107.87,45.17l-11.55-28,9.09-.05,6.45,17.59Z" transform="translate(-0.08 -0.02)"/><path class="cls-1" d="M121.79,45.39l-11.55-28,9.09-.05,6.45,17.6Z" transform="translate(-0.08 -0.02)"/><path class="cls-1" d="M152.39,44.3l-7.74,0s0-22.47-.25-23.43l-.06-.31c-.58-2.07-2.29-3.11-4.65-3.11a11.35,11.35,0,0,1,3.32-.7c4.42-.19,5.63.91,7.33,2.45q2.06,1.92,2,6.72Z" transform="translate(-0.08 -0.02)"/><path d="M138.1,18.3c-.76,1.45-.57,2.45.55,3.28a1.68,1.68,0,0,1,.53,2.47,3,3,0,0,1-2.08,1c-1.11,0-1.65-.94-1.82-2C135,21.34,136.05,19.47,138.1,18.3Z" transform="translate(-0.08 -0.02)"/><path d="M141.88,44.2c-6.35.35-10.44-2.93-10.44-8.64,0-6,4.67-9,10.69-8.72-3.93,2.74-5.6,3.88-5.6,8.72S138,41.78,141.88,44.2Z" transform="translate(-0.08 -0.02)"/><path class="cls-1" d="M58.9,44.2l-8.38,0,0-16.12q0-6.69-.86-8a2.83,2.83,0,0,0-2.62-1.54,5.33,5.33,0,0,0-2.38.6,8.51,8.51,0,0,1,6.23-2.74c3.57,0,5.89,1.25,7,3.73a11.1,11.1,0,0,1,.84,3.49c.1,1.28.15,3.94.15,8Z" transform="translate(-0.08 -0.02)"/><path class="cls-1" d="M42.71,44.11H34.37l0-24.81,8.36-2.11Z" transform="translate(-0.08 -0.02)"/><path class="cls-1" d="M81.22,16.57a5.49,5.49,0,0,1,2.19,1.19c1.26,1.27,2.87,4.66,2.87,13.1S84.47,42.7,83.6,43.57a5.08,5.08,0,0,1-2,1.29,13.13,13.13,0,0,0,10.22-4.52c4.24-4.85,3.72-9.53,3.72-9.53s0-6.61-4.56-10.37A15.89,15.89,0,0,0,81.22,16.57Z" transform="translate(-0.08 -0.02)"/><path class="cls-1" d="M78,16.57a6,6,0,0,0-2.18,1.19c-1.27,1.27-2.88,4.66-2.88,13.1S74.7,42.7,75.57,43.57a4.87,4.87,0,0,0,2,1.29,13.12,13.12,0,0,1-10.22-4.52c-4.23-4.86-3.72-9.53-3.72-9.53s.06-6.61,4.56-10.37A15.91,15.91,0,0,1,78,16.57Z" transform="translate(-0.08 -0.02)"/><path class="cls-1" d="M172,16.57s.94-.1,2.18,1.19,3.37,4.66,3.37,13.1-1.71,11-2.58,11.91a9.09,9.09,0,0,1-3.07,1.49s6.75.79,10.72-3.92c4.15-4.93,3.72-9.53,3.72-9.53s-.06-6.61-4.57-10.37A15.87,15.87,0,0,0,172,16.57Z" transform="translate(-0.08 -0.02)"/><path class="cls-1" d="M168.43,44h-8.34L160,2.13,168.4,0Z" transform="translate(-0.08 -0.02)"/><path class="cls-1" d="M201.16,44h-8.34l0-41.83L201.13,0Z" transform="translate(-0.08 -0.02)"/><path class="cls-1" d="M230.14,40.56s-2.43,4.28-8.94,4.28a15.56,15.56,0,0,1-10.92-4,13.74,13.74,0,0,1-4-10.21,14.07,14.07,0,0,1,3.92-10.17,13.4,13.4,0,0,1,8-4,9.44,9.44,0,0,1,2-.09c-1.16.2-4.9,5.49-5.06,12.55-.15,6.7,1.38,9.82,3.42,11.84a7.1,7.1,0,0,0,5.11,2A11.14,11.14,0,0,0,230.14,40.56Z" transform="translate(-0.08 -0.02)"/><path class="cls-1" d="M222.22,16.4s6.25,0,8.75,3.69a12.61,12.61,0,0,1,1.9,6.5h-9.66a4.69,4.69,0,0,0,2.47-3.06,9.71,9.71,0,0,0-1.15-5.39A4.35,4.35,0,0,0,222.22,16.4Z" transform="translate(-0.08 -0.02)"/><path class="cls-1" d="M8.47,44H.12l0-41.83L8.44,0Z" transform="translate(-0.08 -0.02)"/><path class="cls-1" d="M19.52,43.94,10.29,28.83l5.12-5.49L29.39,44Z" transform="translate(-0.08 -0.02)"/><path d="M22.85,15.23l-5.79,6.35c.35-3.12-.35-5.51-3.77-6.35Z" transform="translate(-0.08 -0.02)"/></svg>