<?xml version="1.0" encoding="UTF-8" standalone="no"?>
<!-- Generator: Adobe Illustrator 19.1.0, SVG Export Plug-In . SVG Version: 6.00 Build 0)  -->

<svg
   xmlns:dc="http://purl.org/dc/elements/1.1/"
   xmlns:cc="http://creativecommons.org/ns#"
   xmlns:rdf="http://www.w3.org/1999/02/22-rdf-syntax-ns#"
   xmlns:svg="http://www.w3.org/2000/svg"
   xmlns="http://www.w3.org/2000/svg"
   xmlns:sodipodi="http://sodipodi.sourceforge.net/DTD/sodipodi-0.dtd"
   xmlns:inkscape="http://www.inkscape.org/namespaces/inkscape"
   version="1.1"
   id="Layer_1"
   x="0px"
   y="0px"
   viewBox="0 0 2999.9999 731.11036"
   xml:space="preserve"
   inkscape:version="0.91 r13725"
   sodipodi:docname="theAdvocate.svg"
   width="3000"
   height="731.11035"><metadata
   id="metadata27"><rdf:RDF><cc:Work
       rdf:about=""><dc:format>image/svg+xml</dc:format><dc:type
         rdf:resource="http://purl.org/dc/dcmitype/StillImage" /><dc:title></dc:title></cc:Work></rdf:RDF></metadata><defs
   id="defs25" /><sodipodi:namedview
   pagecolor="#ffffff"
   bordercolor="#666666"
   borderopacity="1"
   objecttolerance="10"
   gridtolerance="10"
   guidetolerance="10"
   inkscape:pageopacity="0"
   inkscape:pageshadow="2"
   inkscape:window-width="1280"
   inkscape:window-height="721"
   id="namedview23"
   showgrid="false"
   fit-margin-top="20"
   fit-margin-right="20"
   fit-margin-bottom="20"
   fit-margin-left="20"
   inkscape:zoom="0.37266667"
   inkscape:cx="1500.0856"
   inkscape:cy="55.271658"
   inkscape:window-x="-4"
   inkscape:window-y="-4"
   inkscape:window-maximized="1"
   inkscape:current-layer="Layer_1" />
<style
   type="text/css"
   id="style3">
	.st0{fill:#FFFFFF;}
</style>
<g
   id="g5"
   style="fill:#000000"
   transform="matrix(10.238672,0,0,10.238672,20,20)">
	<path
   class="st0"
   d="m 22.4,66.2 -0.7,-9.3 -7.2,0 -1.1,9.3 -13.4,0 9.8,-65 17.9,0 10.1,65 -15.4,0 z m -3.7,-43 -2.6,20.6 4.2,0 -1.6,-20.6 z"
   id="path7"
   style="fill:#000000"
   inkscape:connector-curvature="0" />
	<path
   class="st0"
   d="m 58.7,66.2 -20,0 0,-65 20,0 c 7.2,0 14.5,3.3 14.5,12.7 l 0,39.7 c 0,9.3 -7.4,12.6 -14.5,12.6 z m 0.5,-50 c 0,-1.9 -0.9,-2.6 -2.6,-2.6 l -2.9,0 0,40.4 2.9,0 c 1.7,0 2.6,-0.7 2.6,-2.6 l 0,-35.2 z"
   id="path9"
   style="fill:#000000"
   inkscape:connector-curvature="0" />
	<path
   class="st0"
   d="m 99.7,66.2 -13.9,0 -12.2,-65 15.6,0 3.8,36.3 4.4,-36.3 14.4,0 -12.1,65 z"
   id="path11"
   style="fill:#000000"
   inkscape:connector-curvature="0" />
	<path
   class="st0"
   d="m 130.5,67.5 c -10.4,0 -18.2,-7.8 -18.2,-14.4 l 0,-38.7 c 0,-6.6 7.8,-14.4 18.2,-14.4 10.3,0 18.1,7.8 18.1,14.4 l 0,38.7 c 0,6.6 -7.8,14.4 -18.1,14.4 z m 3,-52 c 0,-1.7 -1.4,-2.8 -3,-2.8 -1.7,0 -3.1,1.1 -3.1,2.8 l 0,36.4 c 0,1.7 1.4,2.8 3.1,2.8 1.6,0 3,-1.1 3,-2.8 l 0,-36.4 z"
   id="path13"
   style="fill:#000000"
   inkscape:connector-curvature="0" />
	<path
   class="st0"
   d="m 169.8,67.5 c -11,0 -18.4,-7 -18.4,-13.6 l 0,-40.3 C 151.4,7 158.8,0 169.8,0 c 10.8,0 17.9,7 17.9,13.6 l 0,12.5 -14.8,0 0,-10.6 c 0,-1.7 -1.4,-2.8 -3.1,-2.8 -1.9,0 -3.3,1.1 -3.3,2.8 l 0,36.4 c 0,1.7 1.4,2.8 3.3,2.8 1.7,0 3.1,-1.1 3.1,-2.8 l 0,-10.5 14.8,0 0,12.5 c 0,6.6 -7.1,13.6 -17.9,13.6 z"
   id="path15"
   style="fill:#000000"
   inkscape:connector-curvature="0" />
	<path
   class="st0"
   d="m 209.6,66.2 -0.7,-9.3 -7.2,0 -1.1,9.3 -13.2,0 9.8,-65 17.8,0 10.1,65 -15.5,0 z m -3.6,-43 -2.6,20.6 4.2,0 -1.6,-20.6 z"
   id="path17"
   style="fill:#000000"
   inkscape:connector-curvature="0" />
	<path
   class="st0"
   d="m 247.3,12.8 0,53.5 -15,0 0,-53.5 -10.3,0 0,-11.6 35.2,0 0,11.5 -9.9,0 z"
   id="path19"
   style="fill:#000000"
   inkscape:connector-curvature="0" />
	<path
   class="st0"
   d="m 259.7,66.2 0,-65 29.4,0 0,11.5 -14.5,0 0,14 9.6,0 0,12.4 -9.6,0 0,14.8 14.5,0 0,12.4 -29.4,0 z"
   id="path21"
   style="fill:#000000"
   inkscape:connector-curvature="0" />
</g>
</svg>