<svg viewBox="0 0 210.63 23.64" xmlns="http://www.w3.org/2000/svg"><path d="m7.22 19.46c2 0 3-1.74 3-3.43v-15.22h4.31v14.9c0 5.6-3.73 7.93-7.39 7.93a6.76 6.76 0 0 1 -7.09-7h4.32a2.83 2.83 0 0 0 2.85 2.78"/><path d="m19.82 13.34h7.29a3.3 3.3 0 0 0 -3.44-2.69 4 4 0 0 0 -3.85 2.69m11.56 3.27h-11.82a4.09 4.09 0 0 0 4.24 3.39 3.83 3.83 0 0 0 3.14-1.36h4.06a7.7 7.7 0 0 1 -7.35 5 8.12 8.12 0 0 1 -8.19-8.39 7.88 7.88 0 0 1 8.06-8.13c4.15 0 8.36 2.89 7.84 9.49"/><path d="m0 0h210.63v23.64h-210.63z" fill="none"/><path d="m50.68 7.29-2.49 11.3h-.52l-2.27-10.01h-5.11l-2.24 10.01h-.55l-2.49-11.3h-4.15l3.86 16.19h5.7l2.2-9.46h.45l2.2 9.46h5.71l3.85-16.19z"/><path d="m59.69 23.48h-4.15v-16.19h4.15zm-4.86-20.73a2.75 2.75 0 0 1 2.78-2.75 2.72 2.72 0 0 1 2.72 2.75 2.76 2.76 0 0 1 -2.72 2.72 2.79 2.79 0 0 1 -2.78-2.72"/><path d="m66.94 10.56c-1.36 0-1.94.68-1.94 1.36 0 1.1 1.45 1.42 2.43 1.62 2.88.61 5.79 1.49 5.79 4.92s-2.75 5.18-6.09 5.18c-3.72 0-6.6-2.27-6.8-5.7h4a2.44 2.44 0 0 0 2.67 2.24c1.65 0 2-.88 2-1.56 0-1.2-1.14-1.55-2.24-1.81-1.91-.42-6-1.2-6-4.89 0-3.18 3-4.8 6.19-4.8 3.62 0 6 2.21 6.21 4.93h-4a2.08 2.08 0 0 0 -2.3-1.49"/><path d="m89.6 14.7v8.78h-4.34v-7.81c0-1.58.26-4.79-2.65-4.79-1.43 0-4.18.75-4.18 5v7.61h-4.34v-23h4.11v8.51h.55a6.3 6.3 0 0 1 4.67-1.84c4.17 0 6.18 3.1 6.18 7.57"/><path d="m112.13 16.68a9.44 9.44 0 0 1 -9.29 7c-5.93 0-10.23-4.86-10.23-11.5s4.27-11.53 10.2-11.53a9.5 9.5 0 0 1 9.32 7h-4.89a4.48 4.48 0 0 0 -4.37-2.69c-3.69 0-5.8 3-5.8 7.22s2.14 7.23 5.87 7.23a4.39 4.39 0 0 0 4.3-2.69z"/><path d="m129.13 7v16.21h-3.24l-.58-1.81h-.43a5.75 5.75 0 0 1 -4.72 2c-4.31 0-6.51-3-6.51-7.57v-8.83h4.4v7.8c0 2 .16 4.8 3 4.8 1.42 0 3.76-.75 3.76-5v-7.6z"/><path d="m140.89 6.86v4.14a8.3 8.3 0 0 0 -1.42-.13c-2.27 0-4.64 1.17-4.64 4.15v8.19h-4.3v-16.21h3.3l.58 1.78h.52a6.84 6.84 0 0 1 5-1.94z"/><path d="m152.37 6.86v4.14a8.3 8.3 0 0 0 -1.42-.13c-2.27 0-4.64 1.17-4.64 4.15v8.19h-4.31v-16.21h3.3l.58 1.78h.52a6.84 6.84 0 0 1 5-1.94z"/><path d="m156.82 13.08h7.29a3.28 3.28 0 0 0 -3.43-2.69 4 4 0 0 0 -3.86 2.69m11.56 3.27h-11.82a4.1 4.1 0 0 0 4.25 3.36 3.83 3.83 0 0 0 3.19-1.36h4a7.71 7.71 0 0 1 -7.35 5 8.12 8.12 0 0 1 -8.2-8.38 7.88 7.88 0 0 1 8.07-8.13c4.14 0 8.35 2.88 7.83 9.49"/><path d="m185.21 14.44v8.77h-4.31v-7.8c0-.55.39-4.63-2.72-4.8-1.52-.09-4.24.75-4.24 5v7.61h-4.28v-16.22h3.34l.55 2h.55a6.19 6.19 0 0 1 4.9-2.14c4.18 0 6.22 3.11 6.22 7.58"/><path d="m195 19.68a2 2 0 0 1 -2.07-1.94v-7.26h4.07v-3.48h-4.08v-4.84h-3.92v3.24a1.77 1.77 0 0 1 -1.85 1.91h-1.62v3.17h3.24v7.52c0 3.27 2.69 5.37 5.8 5.37a5.87 5.87 0 0 0 3.75-1.26 6.76 6.76 0 0 1 -1.59-2.9 4 4 0 0 1 -1.74.47"/><path d="m204.35 10.29c-1.36 0-1.95.68-1.95 1.36 0 1.1 1.46 1.43 2.43 1.62 2.88.62 5.8 1.49 5.8 4.92s-2.75 5.18-6.09 5.18c-3.72 0-6.61-2.26-6.8-5.7h4a2.45 2.45 0 0 0 2.72 2.24c1.66 0 2-.88 2-1.56 0-1.19-1.13-1.55-2.23-1.81-1.91-.42-6-1.2-6-4.89 0-3.17 3-4.79 6.18-4.79 3.63 0 6 2.2 6.22 4.92h-4a2.08 2.08 0 0 0 -2.3-1.49"/><path d="m0 0h210.63v23.64h-210.63z" fill="none"/></svg>