<svg xmlns="http://www.w3.org/2000/svg" viewBox="0 0 11.95 7.92"><path d="M11.79,4.93h0L11.4,5l-.74.12a.25.25,0,0,0-.22.21A1.86,1.86,0,0,1,8.89,6.62,2.23,2.23,0,0,1,7.1,6.19a2.88,2.88,0,0,1-.94-1.76A2.94,2.94,0,0,1,6.4,2.5a2,2,0,0,1,1.45-1,1.75,1.75,0,0,1,1.85.68.32.32,0,0,0,.36.15l1.06-.18h0c.11,0,.12-.12.1-.21A3,3,0,0,0,8.38.17,5.32,5.32,0,0,0,7.6.23,3.5,3.5,0,0,0,5.09,1.91V.18A.18.18,0,0,0,4.9,0H3.73a.19.19,0,0,0-.19.18V5.26c0,.82-.42,1.21-1,1.21a1,1,0,0,1-1-.87.22.22,0,0,0-.22-.19H.24A.23.23,0,0,0,0,5.65,2.35,2.35,0,0,0,2.58,7.87a2.33,2.33,0,0,0,2.47-2,3.58,3.58,0,0,0,4.07,2A3.1,3.1,0,0,0,12,5c0-.06,0-.13-.16-.11" style="fill:#000"></path></svg>
