<svg class="jta-icon site-header__logo" width="804" height="45" viewBox="0 0 804 45" fill="none" xmlns="http://www.w3.org/2000/svg">
			<path d="M71.5529 28.591C71.5529 31.5865 70.9475 34.1677 69.7365 36.3346C68.5575 38.5334 66.8845 40.2223 64.7175 41.4014C62.5506 42.5805 60.0491 43.2178 57.2129 43.3134V36.5736C62.1204 36.3187 64.5741 33.61 64.5741 28.4476V0.8192H71.5529V28.591ZM106.279 0.8192V7.5112H89.2142V15.0158H104.319V21.7078H89.2142V29.308H106.948V36H82.2832V0.8192H106.279ZM145.002 37.5296L136.637 16.6888L126.886 37.6252L112.737 1.0582H120.863L127.794 21.421L133.147 7.9892L130.375 1.0582H137.258L145.145 20.6084L151.12 1.0582H158.577L145.002 37.5296ZM173.229 0.8192V36H166.298V0.8192H173.229ZM202.724 9.3276C199.665 7.63867 197.004 6.7942 194.742 6.7942C193.212 6.7942 192.017 7.09693 191.157 7.7024C190.328 8.30787 189.914 9.21607 189.914 10.427C189.914 11.5423 190.519 12.5302 191.73 13.3906C192.973 14.2191 194.614 15.0158 196.654 15.7806C198.311 16.3861 199.729 17.0871 200.908 17.8838C202.087 18.6486 203.059 19.7161 203.824 21.0864C204.62 22.4567 205.019 24.1934 205.019 26.2966C205.019 28.113 204.541 29.8019 203.585 31.3634C202.66 32.893 201.29 34.1199 199.474 35.044C197.657 35.9363 195.49 36.3824 192.973 36.3824C190.87 36.3824 188.783 36.0797 186.711 35.4742C184.64 34.8369 182.712 33.8809 180.927 32.6062L183.987 27.2048C185.198 28.0971 186.584 28.83 188.145 29.4036C189.707 29.9772 191.109 30.264 192.352 30.264C193.817 30.264 195.092 29.9613 196.176 29.3558C197.259 28.7185 197.801 27.6987 197.801 26.2966C197.801 24.4802 196.096 22.9028 192.686 21.5644C190.679 20.7677 189.006 20.0029 187.667 19.27C186.329 18.5371 185.166 17.4855 184.178 16.1152C183.222 14.7449 182.744 13.0241 182.744 10.9528C182.744 7.92547 183.732 5.48767 185.707 3.6394C187.715 1.79113 190.376 0.787333 193.69 0.628C196.303 0.628 198.486 0.930733 200.239 1.5362C201.991 2.1098 203.696 2.93833 205.353 4.0218L202.724 9.3276ZM243.024 36H236.093V21.7078H220.367V36H213.436V0.8192H220.367V15.0158H236.093V0.8192H243.024V36ZM292.209 0.8192V7.5112H283.653V36H276.722V7.5112H268.5V0.8192H292.209ZM324.523 0.8192V7.5112H307.459V15.0158H322.563V21.7078H307.459V29.308H325.192V36H300.528V0.8192H324.523ZM340.924 0.8192V29.308H357.463V36H333.993V0.8192H340.924ZM390.24 0.8192V7.5112H373.175V15.0158H388.28V21.7078H373.175V29.308H390.909V36H366.244V0.8192H390.24ZM428.246 32.4628C427.704 33.0364 426.732 33.6419 425.33 34.2792C423.96 34.8847 422.43 35.3945 420.741 35.8088C419.084 36.1912 417.571 36.3824 416.2 36.3824C412.472 36.3824 409.19 35.6654 406.353 34.2314C403.549 32.7655 401.382 30.7579 399.853 28.2086C398.323 25.6274 397.558 22.6957 397.558 19.4134C397.558 15.3026 398.371 11.8291 399.996 8.993C401.621 6.125 403.804 3.98993 406.545 2.5878C409.285 1.1538 412.313 0.4368 415.627 0.4368C417.762 0.4368 419.769 0.6758 421.649 1.1538C423.53 1.6318 425.187 2.2532 426.621 3.018L424.374 9.471C423.45 8.96113 422.175 8.49907 420.55 8.0848C418.957 7.63867 417.618 7.4156 416.535 7.4156C412.711 7.4156 409.779 8.3716 407.74 10.2836C405.732 12.1956 404.728 15.0317 404.728 18.792C404.728 20.9589 405.222 22.855 406.21 24.4802C407.198 26.0735 408.568 27.3004 410.321 28.1608C412.105 29.0212 414.129 29.4514 416.391 29.4514C418.558 29.4514 420.168 29.1487 421.219 28.5432V24.289H415.149V17.597H428.246V32.4628ZM456.726 36L449.317 24.8148H444.68V36H437.749V0.8192H448.408C452.774 0.8192 456.152 1.88673 458.542 4.0218C460.964 6.125 462.175 9.00893 462.175 12.6736C462.175 14.8405 461.713 16.88 460.789 18.792C459.896 20.6721 458.51 22.1539 456.63 23.2374L464.804 36H456.726ZM444.68 18.1228H449.603C451.484 18.1228 452.854 17.5811 453.714 16.4976C454.575 15.3823 455.005 14.1873 455.005 12.9126C455.005 11.6379 454.638 10.427 453.905 9.2798C453.172 8.10073 451.754 7.5112 449.651 7.5112H444.68V18.1228ZM489.547 29.1168H477.884L475.016 36H468.18L484.05 -0.566999H484.432L500.302 36H492.271L489.547 29.1168ZM487.252 23.2852L483.859 14.729L480.321 23.2852H487.252ZM517.719 0.8192C522.021 0.8192 525.351 1.88673 527.709 4.0218C530.068 6.125 531.247 9.00893 531.247 12.6736C531.247 14.7768 530.832 16.7525 530.004 18.6008C529.207 20.4172 527.885 21.9149 526.036 23.094C524.22 24.2731 521.862 24.8626 518.962 24.8626H513.991V36H507.06V0.8192H517.719ZM518.914 18.1228C520.221 18.1228 521.272 17.836 522.069 17.2624C522.866 16.6569 523.439 15.9559 523.79 15.1592C524.14 14.3625 524.316 13.5977 524.316 12.8648C524.316 11.622 523.949 10.427 523.216 9.2798C522.483 8.10073 521.065 7.5112 518.962 7.5112H513.991V18.1228H518.914ZM568.666 36H561.735V21.7078H546.009V36H539.078V0.8192H546.009V15.0158H561.735V0.8192H568.666V36ZM586.289 0.8192V36H579.358V0.8192H586.289ZM623.384 33.0842C622.492 33.8171 621.074 34.5501 619.13 35.283C617.186 36.0159 615.067 36.3824 612.773 36.3824C609.108 36.3824 605.921 35.5857 603.213 33.9924C600.504 32.3991 598.433 30.264 596.999 27.5872C595.565 24.8785 594.848 21.9149 594.848 18.6964C594.848 15.1592 595.565 12.0044 596.999 9.232C598.433 6.4596 600.44 4.3086 603.022 2.779C605.603 1.21753 608.582 0.4368 611.96 0.4368C614.095 0.4368 616.071 0.7236 617.887 1.2972C619.704 1.8708 621.297 2.5878 622.667 3.4482L619.943 9.9968C617.425 8.0848 614.844 7.1288 612.199 7.1288C610.415 7.1288 608.742 7.62273 607.18 8.6106C605.619 9.59847 604.376 10.9528 603.452 12.6736C602.528 14.3625 602.066 16.2427 602.066 18.314C602.066 20.5765 602.496 22.5682 603.356 24.289C604.217 25.9779 605.443 27.3004 607.037 28.2564C608.63 29.2124 610.494 29.6904 612.629 29.6904C614.35 29.6904 615.896 29.4195 617.266 28.8778C618.636 28.3042 619.72 27.635 620.516 26.8702L623.384 33.0842ZM666.531 29.1168H654.868L652 36H645.164L661.034 -0.566999H661.416L677.286 36H669.255L666.531 29.1168ZM664.236 23.2852L660.843 14.729L657.305 23.2852H664.236ZM711.133 32.4628C710.592 33.0364 709.62 33.6419 708.217 34.2792C706.847 34.8847 705.318 35.3945 703.629 35.8088C701.972 36.1912 700.458 36.3824 699.088 36.3824C695.359 36.3824 692.077 35.6654 689.241 34.2314C686.437 32.7655 684.27 30.7579 682.74 28.2086C681.21 25.6274 680.446 22.6957 680.446 19.4134C680.446 15.3026 681.258 11.8291 682.883 8.993C684.509 6.125 686.692 3.98993 689.432 2.5878C692.173 1.1538 695.2 0.4368 698.514 0.4368C700.649 0.4368 702.657 0.6758 704.537 1.1538C706.417 1.6318 708.074 2.2532 709.508 3.018L707.261 9.471C706.337 8.96113 705.063 8.49907 703.437 8.0848C701.844 7.63867 700.506 7.4156 699.422 7.4156C695.598 7.4156 692.667 8.3716 690.627 10.2836C688.619 12.1956 687.616 15.0317 687.616 18.792C687.616 20.9589 688.11 22.855 689.097 24.4802C690.085 26.0735 691.456 27.3004 693.208 28.1608C694.993 29.0212 697.016 29.4514 699.279 29.4514C701.446 29.4514 703.055 29.1487 704.107 28.5432V24.289H698.036V17.597H711.133V32.4628ZM744.632 0.8192V7.5112H727.567V15.0158H742.672V21.7078H727.567V29.308H745.301V36H720.636V0.8192H744.632ZM785.793 0.8192V37.434H785.602L760.985 15.207L761.128 36H754.101V-0.566999H754.388L778.957 21.9946L778.814 0.8192H785.793ZM822.868 33.0842C821.976 33.8171 820.558 34.5501 818.614 35.283C816.67 36.0159 814.551 36.3824 812.256 36.3824C808.592 36.3824 805.405 35.5857 802.696 33.9924C799.988 32.3991 797.916 30.264 796.482 27.5872C795.048 24.8785 794.331 21.9149 794.331 18.6964C794.331 15.1592 795.048 12.0044 796.482 9.232C797.916 6.4596 799.924 4.3086 802.505 2.779C805.086 1.21753 808.066 0.4368 811.444 0.4368C813.579 0.4368 815.555 0.7236 817.371 1.2972C819.187 1.8708 820.781 2.5878 822.151 3.4482L819.426 9.9968C816.909 8.0848 814.328 7.1288 811.683 7.1288C809.898 7.1288 808.225 7.62273 806.664 8.6106C805.102 9.59847 803.859 10.9528 802.935 12.6736C802.011 14.3625 801.549 16.2427 801.549 18.314C801.549 20.5765 801.979 22.5682 802.84 24.289C803.7 25.9779 804.927 27.3004 806.52 28.2564C808.114 29.2124 809.978 29.6904 812.113 29.6904C813.834 29.6904 815.379 29.4195 816.75 28.8778C818.12 28.3042 819.203 27.635 820 26.8702L822.868 33.0842ZM860.695 0.8192L847.502 25.0538V36H840.571V25.0538L827.617 0.8192H836.173L844.252 17.0712L852.139 0.8192H860.695Z" transform="translate(-57 1)" fill="black"></path>
		</svg>
