<svg id="Layer_1" data-name="Layer 1" xmlns="http://www.w3.org/2000/svg" viewBox="0 0 376.11 90.01"><defs><style>.cls-1{fill:#1f0d0d;}.cls-2{fill:#e21d38;}</style></defs><path class="cls-1" d="M235.07,35.8c2.7-2.35,6.85-4.42,9.92-4.42,7.48,0,10.18,3.87,10.18,22.63v6.76c0,1.62-2.07,2.25-3.42,2.7v1.35c1.89,0,4.24-.37,6.58-.37s4.69.37,7,.37V63.47c-2-.55-3.88-1-3.88-2.7V40.94c0-11.63-5.76-14.07-11.63-14.07s-10.09,2.62-14.78,5.77V21.19c0-7,.45-14.16.45-21.19H234c-2.07,1-6.22,3.52-11,3.69V5.77c1.9-.18,5.41.72,5.41,3.15,0,1,.36,11.18.36,22.17V60.75c0,1.62-2.07,2.25-4.06,2.7V64.8c2.52,0,4.87-.36,7.21-.36s4.69.36,7,.36V63.45c-2-.54-3.87-1-3.87-2.7v-25ZM225.15,31V28.14h-11.9v-11h-2.07c-1,6.85-4.14,10.64-10,13V31h6V54.64c0,9.47,7.49,11.09,11.37,11.09l6.31-7.48-1.08-.9c-1.45,1.17-3.07,2.52-5.32,2.52-3.16,0-5-1.62-5-7V31ZM189.82,14.88a3.8,3.8,0,0,0,7.58,0,3.81,3.81,0,0,0-7.58,0m6.57,12C195,29,189.54,31.65,186.47,32v1.35c2.8,0,3.52.36,3.88,1.53s.63,9,.63,14v11.9c0,1.62-2.08,2.25-3,2.7v1.35c1.9,0,4.24-.36,6.14-.36,2.34,0,4.68.36,6.85.36V63.46c-1.8-.54-3.7-1-3.7-2.7v-9.1c0-5.5.36-15.23.45-24.79Zm-14.77-5.68c0-7,.45-14.16.45-21.19H181a45.09,45.09,0,0,1-11,5.5V7.12c1.44-.18,5-.63,5,1.8,0,1,.35,11.18.35,22.17V60.75c0,1.62-2.07,2.25-3.69,2.7V64.8c2.17,0,4.51-.36,6.85-.36s4.69.36,7,.36V63.45c-2-.54-3.88-1-3.88-2.7V21.19Zm-24.07-6.31a3.79,3.79,0,0,0,7.57,0,3.8,3.8,0,0,0-7.57,0m6.57,12c-1.44,2.17-6.85,4.78-9.92,5.14v1.35c2.79,0,3.52.36,3.87,1.53s.63,9,.63,14v11.9c0,1.62-2.07,2.25-3,2.7v1.35c1.89,0,4.24-.36,6.13-.36,2.35,0,4.69.36,6.86.36V63.46c-1.81-.54-3.7-1-3.7-2.7v-9.1c0-5.5.37-15.23.45-24.79ZM116,57.79c0,2.8-1.17,5.41-4.24,5.41v1.63c6.68,0,13.35-.37,20.11-.37s17.31,0,20.37.82l2.25-10.82L153,54c-2.35,5-5.14,7.39-12,7.39H123.18c0-7-.54-17.49-.54-26.15,0-8.29.54-22,.54-26.32,0-2.8,1.18-5.41,4.24-5.41V1.9c-2.25,0-5,.36-8,.36-2.7,0-5.41-.36-8.66-.36V3.52C115.61,4.25,116,5,116,35.26V57.79Z"/><path class="cls-2" d="M0,88.21V78.54H2.35v9.67Z"/><path class="cls-2" d="M14.34,88.49l-6-5.32v5H6.12V78.27h.33l6,5.44V78.54h2.23v9.95Z"/><path class="cls-2" d="M18.32,78.54h3.19a6.34,6.34,0,0,1,2.88.62,4.58,4.58,0,0,1,1.9,1.74,4.91,4.91,0,0,1,0,4.95,4.57,4.57,0,0,1-1.9,1.73,6.21,6.21,0,0,1-2.88.63H18.32Zm3.09,7.69a3.6,3.6,0,0,0,1.71-.38,2.6,2.6,0,0,0,1.08-1,2.77,2.77,0,0,0,.37-1.47,3,3,0,0,0-.37-1.47,2.34,2.34,0,0,0-1.08-1,3.72,3.72,0,0,0-1.71-.37h-.74v5.71Z"/><path class="cls-2" d="M30.11,88.21V78.54h6.6v2H32.46v2.12h3.7v1.83h-3.7v1.74h4.39v2H30.11Z"/><path class="cls-2" d="M40.28,78.54h3.44a4.8,4.8,0,0,1,2.12.44,3.21,3.21,0,0,1,1.41,1.2,3.24,3.24,0,0,1,0,3.46,3.3,3.3,0,0,1-1.42,1.19,5,5,0,0,1-2.16.44H42.61v2.94H40.26V78.54Zm3.2,4.92A1.91,1.91,0,0,0,44.91,83a1.53,1.53,0,0,0,.46-1.11,1.46,1.46,0,0,0-.46-1.08,1.94,1.94,0,0,0-1.42-.45h-.85v3.09h.84Z"/><path class="cls-2" d="M50.7,88.21V78.54h6.59v2H53.05v2.12h3.69v1.83H53.05v1.74h4.38v2H50.7Z"/><path class="cls-2" d="M69.07,88.49l-6-5.32v5H60.85V78.27h.33l6,5.44V78.54H69.4v9.95Z"/><path class="cls-2" d="M73.05,78.54h3.19a6.34,6.34,0,0,1,2.88.62A4.58,4.58,0,0,1,81,80.9a4.91,4.91,0,0,1,0,4.95,4.57,4.57,0,0,1-1.9,1.73,6.21,6.21,0,0,1-2.88.63H73.05Zm3.09,7.69a3.6,3.6,0,0,0,1.71-.38,2.6,2.6,0,0,0,1.08-1,2.77,2.77,0,0,0,.37-1.47,3,3,0,0,0-.37-1.47,2.34,2.34,0,0,0-1.08-1,3.72,3.72,0,0,0-1.71-.37H75.4v5.71Z"/><path class="cls-2" d="M84.84,88.21V78.54h6.6v2H87.19v2.12h3.7v1.83h-3.7v1.74h4.39v2H84.84Z"/><path class="cls-2" d="M103.23,88.49l-6-5.32v5H95V78.27h.32l6,5.44V78.54h2.22v9.95Z"/><path class="cls-2" d="M109.41,88.21V80.52h-2.94v-2h8.27v2h-3v7.69Z"/><path class="cls-2" d="M117.25,88.22a1.25,1.25,0,0,1-.7-1.14,1.16,1.16,0,0,1,.37-.88,1.29,1.29,0,0,1,.9-.36,1.23,1.23,0,0,1,1.25,1.27,1.28,1.28,0,0,1-.1.47,4.54,4.54,0,0,1-.37.74l-1,1.69h-1Z"/><path class="cls-2" d="M133.6,88.26a3,3,0,0,1-1-.51l.74-1.67a1.71,1.71,0,0,0,.56.27,2.28,2.28,0,0,0,.6.1,1.46,1.46,0,0,0,1.05-.42,1.54,1.54,0,0,0,.44-1.14V78.54h2.35v6.35a3.56,3.56,0,0,1-.48,1.84A3.35,3.35,0,0,1,136.58,88a3.64,3.64,0,0,1-1.8.45A3.6,3.6,0,0,1,133.6,88.26Z"/><path class="cls-2" d="M142,88.21V78.54h6.6v2h-4.25v2.12H148v1.83h-3.69v1.74h4.38v2H142Z"/><path class="cls-2" d="M155.05,88.49l-3.77-9.95h2.47l1.82,5.27,2.22-5.43h.39l2.21,5.43,1.84-5.27h2.45l-3.77,9.95h-.39L158,82.63l-2.54,5.86Z"/><path class="cls-2" d="M167.49,88.21V78.54h2.35v9.67Z"/><path class="cls-2" d="M174.75,87.91a5.11,5.11,0,0,1-1.84-1.58l1.48-1.23a4,4,0,0,0,1.21,1.13,2.8,2.8,0,0,0,1.39.36,2,2,0,0,0,1.16-.3.9.9,0,0,0,.43-.75.81.81,0,0,0-.43-.73,5.8,5.8,0,0,0-1.23-.56,16.68,16.68,0,0,1-1.62-.61,3.22,3.22,0,0,1-1.07-.88,2.9,2.9,0,0,1,.44-3.72,3.85,3.85,0,0,1,2.5-.77,4.69,4.69,0,0,1,2.06.43,3.82,3.82,0,0,1,1.48,1.17l-1.34,1.24a2.87,2.87,0,0,0-2.19-1,1.69,1.69,0,0,0-1,.23.71.71,0,0,0-.33.65.66.66,0,0,0,.18.47,1.62,1.62,0,0,0,.54.36c.25.11.6.25,1.07.42a14.22,14.22,0,0,1,1.65.65,3.05,3.05,0,0,1,1.1.89,2.35,2.35,0,0,1,.46,1.52,2.71,2.71,0,0,1-.5,1.65A3.23,3.23,0,0,1,179,88.05a4.94,4.94,0,0,1-2,.38A5.09,5.09,0,0,1,174.75,87.91Z"/><path class="cls-2" d="M184.07,88.21V78.54h2.35v4h3.64v-4h2.35v9.67h-2.35V84.57h-3.64v3.64Z"/><path class="cls-2" d="M202.64,88.06a3,3,0,0,1-1.21-1,2.73,2.73,0,0,1-.44-1.49,2.39,2.39,0,0,1,.59-1.64,6.51,6.51,0,0,1,1.63-1.25,3.8,3.8,0,0,1-.69-2,2.12,2.12,0,0,1,.74-1.66,2.9,2.9,0,0,1,2-.64,3.24,3.24,0,0,1,1.34.27,3.81,3.81,0,0,1,1.2.84L207,80.65a3.72,3.72,0,0,0-.81-.59,1.69,1.69,0,0,0-.81-.21,1,1,0,0,0-.73.26.89.89,0,0,0-.26.65,2.7,2.7,0,0,0,.75,1.53l2.18,2.62c.27-.38.56-.83.86-1.35l1.42.89a14.21,14.21,0,0,1-1.19,1.79l1.63,2h-2.18l-.64-.77a4.49,4.49,0,0,1-2.81,1A3.5,3.5,0,0,1,202.64,88.06Zm3.47-1.9-2-2.36a4.5,4.5,0,0,0-.93.79,1.39,1.39,0,0,0-.33.92,1.31,1.31,0,0,0,.41,1,1.46,1.46,0,0,0,1.08.39A2.78,2.78,0,0,0,206.11,86.16Z"/><path class="cls-2" d="M218.57,88.21V78.54h6.59v2h-4.24v2.12h3.57v1.83h-3.57V88.2h-2.35Z"/><path class="cls-2" d="M228.23,78.54h3.44a4.88,4.88,0,0,1,2.13.44,3.33,3.33,0,0,1,1.41,1.2,3.2,3.2,0,0,1,.5,1.72,3.12,3.12,0,0,1-.48,1.69,3.42,3.42,0,0,1-1.33,1.19l2.15,3.43h-2.62l-1.77-2.94h-1.08v2.94h-2.35Zm3.21,4.92a1.92,1.92,0,0,0,1.43-.46,1.56,1.56,0,0,0,.45-1.11,1.49,1.49,0,0,0-.45-1.08,2,2,0,0,0-1.42-.45h-.86v3.09h.85Z"/><path class="cls-2" d="M238.57,88.21l4.73-9.94h.39l4.67,9.94h-2.45l-.5-1.28h-3.9l-.5,1.28Zm3.64-3h2.52l-1.27-3.24Z"/><path class="cls-2" d="M259.31,88.49l-6-5.32v5h-2.24V78.27h.33l6,5.44V78.54h2.23v9.95Z"/><path class="cls-2" d="M263.29,88.21V78.54h2.35V83l3.3-4.44h2.91l-4,4.7,4.18,5h-3l-3.46-4.72v4.72Z"/><path class="cls-2" d="M274.82,88.21V78.54h2.35v7.69h4.6v2Z"/><path class="cls-2" d="M286.22,88.21V84.77l-3.61-6.23h2.61L287.4,83l2.17-4.42h2.61l-3.6,6.22v3.45Z"/><path class="cls-2" d="M300.1,88.21V78.54h6.6v2h-4.25v2.12H306v1.83h-3.57V88.2H300.1Z"/><path class="cls-2" d="M309.77,88.21V78.54h6.59v2h-4.24v2.12h3.69v1.83h-3.69v1.74h4.38v2h-6.73Z"/><path class="cls-2" d="M319.92,88.21V78.27h.33l4.56,4.65,4.55-4.65h.32v9.94h-2.31V83.35l-2.31,2.51h-.39l-2.46-2.56v4.91Z"/><path class="cls-2" d="M333.43,88.21V78.54h2.35v9.67Z"/><path class="cls-2" d="M347.77,88.49l-6-5.32v5h-2.24V78.27h.33l6,5.44V78.54h2.23v9.95Z"/><path class="cls-2" d="M351.84,88.21V78.54h2.35v9.67Z"/><path class="cls-2" d="M359.09,87.91a5.08,5.08,0,0,1-1.83-1.58l1.48-1.23A4,4,0,0,0,360,86.23a2.77,2.77,0,0,0,1.39.36,2,2,0,0,0,1.16-.3.91.91,0,0,0,.41-.75.81.81,0,0,0-.43-.73,6.08,6.08,0,0,0-1.23-.56,16.68,16.68,0,0,1-1.62-.61,3.22,3.22,0,0,1-1.07-.88,2.54,2.54,0,0,1-.47-1.6A2.57,2.57,0,0,1,359,79a3.87,3.87,0,0,1,2.5-.77,4.76,4.76,0,0,1,2.07.43,3.9,3.9,0,0,1,1.48,1.17l-1.35,1.24a2.87,2.87,0,0,0-2.18-1,1.72,1.72,0,0,0-1,.23.72.72,0,0,0-.32.65.7.7,0,0,0,.17.47,1.62,1.62,0,0,0,.54.36c.25.11.6.25,1.07.42a14.47,14.47,0,0,1,1.66.65,3,3,0,0,1,1.09.89,2.3,2.3,0,0,1,.47,1.52,2.72,2.72,0,0,1-.51,1.65,3.17,3.17,0,0,1-1.37,1.08,4.91,4.91,0,0,1-2,.38A5.14,5.14,0,0,1,359.09,87.91Z"/><path class="cls-2" d="M370.78,88.21V80.52h-2.94v-2h8.27v2h-3v7.69Z"/></svg>