<?xml version="1.0" encoding="utf-8"?>
<!-- Generator: Adobe Illustrator 16.0.0, SVG Export Plug-In . SVG Version: 6.00 Build 0)  -->
<!DOCTYPE svg PUBLIC "-//W3C//DTD SVG 1.1//EN" "http://www.w3.org/Graphics/SVG/1.1/DTD/svg11.dtd">
<svg version="1.1" id="Layer_1" xmlns="http://www.w3.org/2000/svg" xmlns:xlink="http://www.w3.org/1999/xlink" x="0px" y="0px"
	 width="178px" height="36px" viewBox="0 0 178 36" enable-background="new 0 0 178 36" xml:space="preserve">
<g>
	<defs>
		<rect id="SVGID_1_" width="177.141" height="36"/>
	</defs>
	<clipPath id="SVGID_2_">
		<use xlink:href="#SVGID_1_"  overflow="visible"/>
	</clipPath>
	<g clip-path="url(#SVGID_2_)">
		<rect x="-849.188" y="-559.257" fill="none" width="867.863" height="906.875"/>
		<rect x="-474.415" y="-341.172" fill="none" width="535.939" height="560.242"/>
		<g opacity="0.5">
			<g opacity="0.5">
				<rect x="-849.188" y="-559.257" fill="none" width="867.863" height="906.875"/>
			</g>
			<g opacity="0.5">
				<rect x="-474.415" y="-341.172" fill="none" width="535.939" height="560.242"/>
			</g>
		</g>
		<path fill="#FFCE00" d="M17.997,36c-3.561,0-7.042-1.057-10.002-3.035c-2.96-1.978-5.268-4.789-6.63-8.079
			c-1.363-3.29-1.719-6.909-1.024-10.402c0.694-3.492,2.409-6.7,4.927-9.218c2.518-2.518,5.726-4.232,9.218-4.927
			c3.493-0.694,7.112-0.338,10.402,1.025c3.29,1.362,6.102,3.67,8.08,6.63C34.944,10.955,36,14.436,36,17.997
			c-0.005,4.773-1.903,9.349-5.279,12.724C27.346,34.096,22.77,35.994,17.997,36z M17.997,1.918c-3.182,0-6.292,0.944-8.937,2.711
			s-4.707,4.28-5.924,7.22s-1.536,6.174-0.915,9.293c0.621,3.121,2.154,5.986,4.404,8.236c2.25,2.249,5.117,3.78,8.237,4.4
			c3.121,0.619,6.355,0.301,9.294-0.918s5.451-3.281,7.217-5.928c1.767-2.646,2.708-5.756,2.708-8.937
			c-0.005-4.264-1.702-8.352-4.717-11.366C26.349,3.616,22.261,1.921,17.997,1.918z"/>
		<path fill="#FFCE00" d="M17.997,27.373c-2.707,0-5.353-0.803-7.604-2.307s-4.005-3.642-5.041-6.143
			c-1.036-2.501-1.307-5.253-0.779-7.908c0.528-2.655,1.832-5.093,3.746-7.007s4.353-3.218,7.007-3.746
			c2.655-0.528,5.407-0.257,7.908,0.779c2.501,1.036,4.638,2.79,6.142,5.041c1.504,2.251,2.307,4.897,2.307,7.604
			c-0.003,3.628-1.446,7.107-4.012,9.674C25.105,25.926,21.625,27.369,17.997,27.373z M17.997,1.918
			c-2.327,0-4.602,0.69-6.538,1.983C9.524,5.195,8.016,7.033,7.125,9.183c-0.891,2.15-1.124,4.516-0.67,6.799
			c0.454,2.283,1.575,4.379,3.221,6.026c1.646,1.645,3.743,2.766,6.025,3.221c2.283,0.453,4.648,0.221,6.799-0.67
			s3.988-2.399,5.281-4.334c1.293-1.936,1.983-4.211,1.983-6.538c-0.003-3.12-1.245-6.111-3.451-8.317S21.117,1.922,17.997,1.918z"
			/>
		<path fill="#FFCE00" d="M13.545,22.922c-1.827,0-3.613-0.54-5.132-1.554c-1.52-1.015-2.704-2.456-3.404-4.144
			c-0.7-1.687-0.883-3.544-0.528-5.336c0.355-1.792,1.234-3.438,2.526-4.73c1.291-1.292,2.937-2.172,4.729-2.529
			c1.792-0.356,3.648-0.174,5.336,0.524c1.688,0.699,3.13,1.883,4.146,3.401c1.015,1.519,1.557,3.305,1.557,5.131
			c-0.003,2.447-0.977,4.793-2.707,6.525C18.338,21.941,15.993,22.916,13.545,22.922z M13.545,6.376
			c-1.447-0.001-2.863,0.427-4.067,1.23C8.274,8.41,7.335,9.553,6.781,10.89c-0.554,1.337-0.7,2.809-0.417,4.229
			c0.282,1.42,0.979,2.724,2.002,3.748c1.023,1.023,2.328,1.72,3.748,2.003c1.42,0.281,2.892,0.137,4.229-0.418
			c1.337-0.555,2.479-1.494,3.283-2.698c0.803-1.204,1.231-2.62,1.23-4.067c-0.008-1.934-0.782-3.787-2.151-5.153
			c-1.37-1.366-3.224-2.134-5.159-2.138V6.376z"/>
		<path fill="#FFCE00" d="M13.43,23.023c-1.138,0-2.251-0.338-3.198-0.97c-0.947-0.633-1.685-1.532-2.12-2.583
			c-0.436-1.052-0.549-2.209-0.327-3.326c0.222-1.116,0.77-2.142,1.575-2.947c0.805-0.805,1.831-1.354,2.947-1.576
			c1.117-0.222,2.274-0.108,3.326,0.328c1.052,0.436,1.951,1.173,2.583,2.12c0.632,0.947,0.97,2.06,0.97,3.198
			c0,1.526-0.606,2.99-1.686,4.07C16.421,22.417,14.957,23.023,13.43,23.023z M13.43,13.43c-0.759,0-1.501,0.225-2.132,0.647
			c-0.631,0.421-1.123,1.021-1.413,1.722c-0.291,0.701-0.367,1.473-0.219,2.217c0.148,0.745,0.514,1.428,1.05,1.964
			c0.537,0.537,1.221,0.902,1.965,1.051s1.516,0.072,2.217-0.219c0.701-0.29,1.3-0.782,1.722-1.413
			c0.422-0.631,0.647-1.373,0.647-2.132c0.001-0.505-0.096-1.005-0.289-1.472c-0.192-0.467-0.475-0.892-0.831-1.25
			c-0.356-0.357-0.78-0.642-1.247-0.835c-0.466-0.194-0.966-0.293-1.471-0.293V13.43z"/>
		<path fill="#FFCE00" d="M15.765,20.702c-0.683,0-1.351-0.202-1.919-0.582s-1.01-0.919-1.272-1.55
			c-0.261-0.631-0.33-1.326-0.196-1.996s0.462-1.285,0.945-1.768c0.483-0.483,1.098-0.812,1.768-0.945s1.364-0.065,1.996,0.196
			c0.631,0.262,1.17,0.704,1.55,1.272s0.582,1.236,0.582,1.919c-0.002,0.916-0.366,1.792-1.014,2.44
			C17.558,20.336,16.68,20.7,15.765,20.702z M15.765,15.713c-0.304,0-0.601,0.09-0.853,0.259c-0.252,0.169-0.449,0.409-0.565,0.689
			s-0.147,0.589-0.087,0.887c0.059,0.298,0.206,0.571,0.42,0.786c0.215,0.215,0.488,0.361,0.786,0.42
			c0.298,0.059,0.606,0.029,0.887-0.088c0.28-0.115,0.52-0.313,0.689-0.565c0.168-0.252,0.258-0.549,0.258-0.853
			c0-0.407-0.162-0.797-0.449-1.085C16.562,15.875,16.172,15.713,15.765,15.713z"/>
		<path fill="#000222" d="M48.407,16.123c0,0.454,0,0.991,0,1.331c0,2.769,0,5.544,0,8.314c0,0.479,0.108,1.029-0.544,1.222
			c-0.896,0.263-1.918,0.077-2.226-0.448c-0.106-0.195-0.159-0.416-0.153-0.639c0-5.303,0-10.598,0-15.893
			c-0.015-0.162,0.027-0.324,0.118-0.459c0.091-0.135,0.226-0.235,0.381-0.283c0.229-0.108,0.476-0.169,0.729-0.182
			c0.252-0.012,0.504,0.025,0.742,0.111c0.238,0.086,0.456,0.217,0.643,0.388c0.187,0.17,0.338,0.375,0.445,0.604
			c0.639,1.068,1.349,2.092,2.008,3.147c0.768,1.228,1.516,2.462,2.271,3.703c0.422,0.697,0.825,1.407,1.279,2.105
			c0.064,0.107,0.236,0.255,0.307,0.229c0.072-0.026,0.138-0.069,0.193-0.122c0.055-0.055,0.098-0.119,0.126-0.191
			c0.049-0.177,0.067-0.361,0.051-0.543c0-2.834,0-5.667,0-8.5c-0.015-0.091-0.012-0.185,0.01-0.274
			c0.021-0.09,0.062-0.174,0.118-0.248c0.056-0.074,0.125-0.135,0.206-0.181c0.08-0.046,0.169-0.075,0.261-0.084
			c0.282-0.058,0.569-0.09,0.857-0.096c1.35,0,1.497,0.128,1.497,1.439c0,5.027,0,10.056,0,15.086c0,0.512,0,1.023-0.55,1.279
			c-0.272,0.153-0.584,0.221-0.896,0.195c-0.312-0.026-0.608-0.146-0.851-0.342c-0.493-0.505-0.922-1.067-1.279-1.676
			c-1.419-2.271-2.814-4.561-4.214-6.85c-0.371-0.64-0.723-1.222-1.087-1.829C48.605,16.219,48.414,15.682,48.407,16.123z"/>
		<path fill="#000222" d="M64.435,20.197c0-2.155,0-4.317,0.166-6.459c0.073-0.786,0.331-1.542,0.752-2.209
			c0.421-0.667,0.994-1.225,1.672-1.628c1.068-0.789,2.376-1.185,3.703-1.119c0.83,0.06,1.639,0.286,2.379,0.666
			c0.741,0.379,1.397,0.903,1.931,1.541c0.994,1.274,1.5,2.862,1.426,4.477c0.077,3.53,0.038,7.066,0.044,10.598
			c0.013,0.124-0.001,0.25-0.039,0.369c-0.039,0.119-0.101,0.23-0.184,0.324c-0.083,0.094-0.184,0.17-0.297,0.224
			s-0.236,0.083-0.362,0.087c-0.451,0.045-0.904,0.057-1.356,0.038c-0.269-0.03-0.515-0.166-0.685-0.376
			c-0.17-0.211-0.25-0.48-0.224-0.75c0-1.234,0-2.469,0-3.696c0-1.068-0.128-1.189-1.215-1.196h-3.773
			c-0.787,0-0.908,0.128-0.915,0.902c0,1.279,0,2.559,0,3.882c0,0.87-0.358,1.228-1.234,1.234c-0.186,0-0.371,0-0.556,0
			c-0.966,0-1.279-0.353-1.279-1.324c0-1.849,0-3.696,0-5.552L64.435,20.197z M70.35,17.978h2.226c0.524,0,0.806-0.243,0.787-0.793
			c-0.019-0.55,0-1.196,0-1.784c-0.153-1.279-0.32-2.482-1.669-3.198c-0.289-0.173-0.608-0.287-0.941-0.336s-0.671-0.032-0.998,0.05
			c-0.326,0.082-0.633,0.227-0.903,0.428s-0.498,0.453-0.67,0.741c-0.78,1.279-0.64,2.718-0.704,4.131
			c0,0.557,0.269,0.774,0.8,0.761H70.35z"/>
		<path fill="#000222" d="M147.518,15.758c0-1.868,0-3.737,0-5.609c0-0.697,0.186-0.902,0.883-1.004h0.121
			c1.996-0.16,2.104-0.051,2.11,1.918c0,3.281,0,6.568,0.045,9.856c-0.001,0.545,0.13,1.084,0.38,1.568
			c0.25,0.485,0.613,0.904,1.06,1.22c0.317,0.229,0.683,0.386,1.069,0.455c0.385,0.069,0.782,0.051,1.16-0.054
			c0.379-0.105,0.728-0.295,1.022-0.553c0.295-0.26,0.528-0.582,0.681-0.942c0.301-0.65,0.461-1.356,0.473-2.072
			c0.045-3.511,0-7.035,0-10.533c-0.01-0.107,0-0.216,0.033-0.319c0.031-0.103,0.084-0.198,0.155-0.28s0.158-0.148,0.255-0.194
			c0.098-0.046,0.204-0.073,0.313-0.076h0.063c2.226-0.173,2.392,0,2.392,2.162c0,3.198,0.052,6.396,0,9.549
			c0.01,1.016-0.213,2.02-0.651,2.936c-0.438,0.917-1.079,1.722-1.875,2.354c-1.97,1.586-5.755,1.598-7.674-0.512
			c-1.226-1.281-1.913-2.985-1.919-4.759C147.498,19.186,147.518,17.459,147.518,15.758z"/>
		<path fill="#000222" d="M94.793,15.752c0,1.791,0,3.575,0,5.359c-0.049,1.162-0.354,2.3-0.889,3.332
			c-1.279,2.674-4.425,3.198-6.83,2.635c-1.098-0.305-2.069-0.955-2.769-1.854c-1.318-1.497-1.471-3.332-1.503-5.174
			c-0.051-3.039,0-6.076,0-9.114c0-0.269,0-0.531,0-0.799c-0.027-0.12-0.026-0.245,0.001-0.364c0.028-0.12,0.083-0.232,0.161-0.327
			c0.078-0.096,0.176-0.172,0.288-0.224c0.111-0.052,0.233-0.078,0.356-0.076h0.186c2.008-0.07,2.117,0.032,2.117,2.001
			c0,2.654,0,5.302,0,7.95c0.017,1.002,0.105,2.002,0.262,2.992c0.086,0.407,0.267,0.788,0.526,1.112s0.592,0.583,0.97,0.757
			c0.378,0.172,0.791,0.254,1.207,0.238s0.822-0.129,1.185-0.329c0.516-0.306,0.943-0.741,1.238-1.263s0.448-1.111,0.443-1.711
			c0.052-3.556,0-7.105,0-10.655c0-0.927,0.122-1.062,1.068-1.087c0.41,0,0.825,0,1.234,0c0.576,0,0.787,0.3,0.787,0.863
			c0,1.918,0,3.837,0,5.756L94.793,15.752z"/>
		<path fill="#000222" d="M171.296,8.724c2.149,0,3.453,0.799,4.854,1.989l0.09,0.09c0.203,0.256-0.141,1.771-0.525,2.065
			c-0.189,0.132-0.417,0.198-0.648,0.189c-0.23-0.009-0.451-0.093-0.631-0.24c-1.062-0.708-2.318-1.065-3.594-1.023
			c-0.462,0.05-0.906,0.206-1.298,0.454c-0.394,0.249-0.724,0.583-0.966,0.979c-0.078,0.208-0.107,0.431-0.088,0.652
			c0.02,0.222,0.09,0.436,0.203,0.626c0.509,0.756,1.26,1.318,2.13,1.593c1.413,0.582,2.897,1.017,4.131,1.918
			c0.821,0.466,1.458,1.201,1.804,2.079c0.335,0.963,0.335,2.011,0,2.974c-0.199,0.533-0.439,1.051-0.717,1.548
			c-0.539,0.9-1.355,1.601-2.328,1.995c-1.536,0.686-3.252,0.854-4.893,0.48c-1.031-0.21-1.996-0.672-2.807-1.344
			c-0.24-0.166-0.412-0.414-0.484-0.697s-0.038-0.583,0.094-0.844c0.186-0.429,0.243-1.062,0.557-1.222
			c0.313-0.159,0.818,0.263,1.247,0.409c1.132,0.384,2.244,0.959,3.466,0.748c0.765-0.128,1.498-0.398,2.162-0.799
			c0.838-0.518,0.639-2.219-0.352-2.801c-0.936-0.519-1.906-0.971-2.904-1.356c-1.726-0.716-3.466-1.433-4.208-3.319
			c-0.239-0.663-0.362-1.361-0.364-2.065c0.006-0.8,0.225-1.583,0.635-2.269s0.998-1.25,1.699-1.632
			C168.658,9.138,169.96,8.728,171.296,8.724z"/>
		<path fill="#000222" d="M124.314,17.991v4.746c0,0.92,0.263,1.164,1.178,1.139c1.643-0.059,1.72,0,1.72,1.649
			c0,0.186,0,0.371,0,0.557c-0.051,0.71-0.345,0.985-1.055,0.985h-6.939c-0.696,0-0.876-0.154-0.915-0.857c0-0.531,0-1.068,0-1.6
			c-0.02-0.104-0.013-0.212,0.02-0.313c0.033-0.102,0.09-0.192,0.167-0.267s0.171-0.127,0.274-0.155
			c0.102-0.028,0.209-0.03,0.313-0.006c0.371,0,0.748,0,1.118,0c0.134-0.003,0.265-0.033,0.385-0.089
			c0.121-0.056,0.229-0.135,0.318-0.234c0.088-0.099,0.156-0.215,0.197-0.341c0.043-0.126,0.059-0.259,0.047-0.392
			c0-3.24,0-6.482,0-9.727c0.004-0.118-0.019-0.235-0.063-0.343s-0.113-0.206-0.199-0.287c-0.086-0.08-0.188-0.142-0.299-0.18
			s-0.229-0.052-0.347-0.041c-0.371-0.012-0.742-0.001-1.112,0.032c-0.097,0.024-0.196,0.025-0.292,0.004
			c-0.098-0.021-0.188-0.065-0.264-0.127s-0.139-0.141-0.18-0.23c-0.041-0.089-0.061-0.188-0.058-0.286
			c-0.036-0.639-0.036-1.279,0-1.918c0.001-0.084,0.021-0.167,0.055-0.242c0.035-0.076,0.087-0.143,0.15-0.198
			s0.138-0.095,0.219-0.118c0.08-0.023,0.164-0.029,0.247-0.018h7.432c0.104-0.006,0.209,0.009,0.305,0.046
			c0.099,0.036,0.187,0.093,0.262,0.166c0.074,0.073,0.132,0.161,0.17,0.257c0.038,0.097,0.055,0.201,0.05,0.305
			c0,0.141,0,0.288,0,0.428c0.046,1.887-0.204,2.06-1.918,1.88c-0.685-0.064-0.972,0.243-0.972,0.953c0,1.605,0,3.198,0,4.81
			L124.314,17.991z"/>
		<path fill="#000222" d="M107.949,19.576v6.287c0,0.953-0.237,1.189-1.202,1.202h-0.679c-0.148,0.007-0.297-0.019-0.436-0.073
			c-0.138-0.055-0.263-0.139-0.367-0.246c-0.103-0.107-0.183-0.234-0.232-0.375c-0.051-0.141-0.07-0.289-0.059-0.438
			c0-3.939,0-7.882,0-11.826c0-0.262,0-0.531,0-0.799c0.07-0.768-0.224-1.068-1.017-1.055c-0.972,0-1.918,0-2.91,0
			c-0.856,0-1.202-0.333-1.228-1.177c0-0.288,0-0.576,0-0.857c0-0.825,0.218-1.055,1.049-1.094c0.333,0,0.64,0,0.99,0h10.086
			c1.012,0,1.279,0.262,1.279,1.279c0,0.269,0,0.537,0,0.806c0.004,0.145-0.023,0.288-0.08,0.422
			c-0.055,0.133-0.138,0.254-0.242,0.354c-0.104,0.1-0.229,0.177-0.364,0.226c-0.138,0.049-0.281,0.069-0.427,0.06
			c-0.984,0-1.976,0-2.967,0c-0.99,0-1.228,0.173-1.222,1.177c0,2.053,0,4.1,0,6.152L107.949,19.576z"/>
		<path fill="#000222" d="M134.547,18.023v-7.79c0-0.742,0.225-0.992,0.96-1.062h0.076c1.951-0.134,2.079,0,2.079,1.919
			c0,3.875,0,7.753,0,11.633c0,0.927,0.294,1.215,1.215,1.215s1.919,0,2.846,0c0.685,0,0.979,0.301,0.979,0.979
			c0,2.213,0.083,2.258-2.181,2.22c-1.586,0-3.198,0-4.766,0c-0.158,0.02-0.32,0.004-0.473-0.047
			c-0.152-0.052-0.29-0.137-0.404-0.25c-0.113-0.113-0.201-0.25-0.254-0.401s-0.07-0.313-0.052-0.473
			C134.541,23.273,134.547,20.651,134.547,18.023z"/>
	</g>
</g>
</svg>
