<?xml version="1.0" encoding="UTF-8" standalone="no"?>
<svg
   x="0px"
   y="0px"
   viewBox="0 0 400 55.922733"
   enable-background="new 0 0 353.5 49.5"
   xml:space="preserve"
   version="1.1"
   style="text-align:center;inline-size:474px"
   id="svg6"
   sodipodi:docname="Quanta Magazine Logo 20.05.2022.svg"
   width="400"
   height="55.922733"
   inkscape:version="1.1.1 (3bf5ae0d25, 2021-09-20)"
   xmlns:inkscape="http://www.inkscape.org/namespaces/inkscape"
   xmlns:sodipodi="http://sodipodi.sourceforge.net/DTD/sodipodi-0.dtd"
   xmlns="http://www.w3.org/2000/svg"
   xmlns:svg="http://www.w3.org/2000/svg"><defs
     id="defs10" /><sodipodi:namedview
     id="namedview8"
     pagecolor="#ffffff"
     bordercolor="#111111"
     borderopacity="1"
     inkscape:pageshadow="0"
     inkscape:pageopacity="0"
     inkscape:pagecheckerboard="1"
     showgrid="false"
     inkscape:zoom="1.4964639"
     inkscape:cx="91.215028"
     inkscape:cy="-12.362476"
     inkscape:window-width="1600"
     inkscape:window-height="837"
     inkscape:window-x="-8"
     inkscape:window-y="-8"
     inkscape:window-maximized="1"
     inkscape:current-layer="svg6" /><path
     id="logo__mark"
     class="_riw402"
     fill="currentColor"
     d="m 32.144878,6.5691762 c 1.131862,0 2.150538,-0.9054895 2.150538,-2.1505376 0,-1.1318619 -0.90549,-2.1505376 -2.150538,-2.1505376 -1.131862,0 -2.150537,0.9054895 -2.150537,2.1505376 0,1.2450481 0.905489,2.1505376 2.150537,2.1505376 z m 0,42.6711938 c -1.131862,0 -2.150537,0.90549 -2.150537,2.150538 0,1.131862 0.905489,2.150537 2.150537,2.150537 1.131862,0 2.150538,-0.905489 2.150538,-2.150537 0,-1.131862 -1.018676,-2.150538 -2.150538,-2.150538 z M 12.337295,37.582192 c -0.565931,-0.113186 -1.131862,-0.113186 -1.584607,0.226373 -0.452745,0.339558 -0.7923032,0.792303 -1.0186755,1.245048 -0.1131862,0.565931 -0.1131862,1.131862 0.2263723,1.584607 0.4527452,0.679117 1.1318622,1.018675 1.8109792,1.018675 0.339558,0 0.679117,-0.113186 1.018676,-0.339558 0.452744,-0.339559 0.905489,-0.792304 1.018675,-1.245048 0.113187,-0.565931 0.113187,-1.131862 -0.226372,-1.584607 -0.226372,-0.452745 -0.679117,-0.792303 -1.245048,-0.90549 z M 52.971138,14.152651 c -0.565931,-0.113186 -1.131862,-0.113186 -1.584607,0.226372 -1.018676,0.565931 -1.358234,1.924165 -0.792303,2.942841 0.339558,0.452745 0.792303,0.792304 1.245048,1.018676 0.226372,0 0.339558,0.113186 0.565931,0.113186 0.339558,0 0.679117,-0.113186 1.018675,-0.339558 0.452745,-0.339559 0.90549,-0.792304 1.018676,-1.245049 0.113186,-0.565931 0.113186,-1.131861 -0.226372,-1.584606 -0.226373,-0.679117 -0.679118,-1.018676 -1.245048,-1.131862 z m 0.56593,23.655914 c -0.452744,-0.339559 -1.018675,-0.339559 -1.584606,-0.226373 -0.339559,0.113187 -0.679117,0.339559 -0.90549,0.565931 L 47.198642,35.8844 c 0.226372,-0.565931 0.226372,-1.131862 0.113186,-1.697793 -0.226372,-0.792304 -0.679117,-1.358235 -1.358234,-1.810979 -1.471421,-0.792304 -3.2824,-0.339559 -4.074703,1.131862 -0.452745,0.679117 -0.452745,1.47142 -0.339559,2.263723 0,0.113187 0,0.113187 0.113186,0.226373 l -7.13073,4.074703 c -0.565931,-0.679117 -1.358234,-1.018676 -2.263723,-1.018676 -0.90549,0 -1.697793,0.452745 -2.263724,1.018676 l -7.13073,-4.074703 c 0,-0.113186 0,-0.113186 0.113186,-0.226373 0.226372,-0.792303 0.113186,-1.584606 -0.339559,-2.263723 -0.452745,-0.679118 -1.018675,-1.131862 -1.810979,-1.358235 -0.113186,0 -0.113186,0 -0.226372,0 v -8.262592 c 0.113186,0 0.113186,0 0.226372,0 0.792304,-0.226372 1.358234,-0.679117 1.810979,-1.358234 0.452745,-0.679117 0.452745,-1.47142 0.339559,-2.263724 0,-0.113186 0,-0.113186 -0.113186,-0.226372 l 7.13073,-4.074703 c 0.565931,0.679117 1.358234,1.018676 2.263724,1.018676 1.697792,0 2.94284,-1.358235 2.94284,-2.942841 0,-1.584607 -1.358234,-2.942841 -2.94284,-2.942841 -1.584607,0 -2.942841,1.358234 -2.942841,2.942841 0,0.339558 0.113186,0.679117 0.226372,1.018675 l -7.13073,4.074703 c -0.226373,-0.226372 -0.452745,-0.452745 -0.792303,-0.679117 -0.679118,-0.452745 -1.471421,-0.452745 -2.263724,-0.339558 -0.792304,0.226372 -1.358235,0.679117 -1.810979,1.358234 -0.792304,1.47142 -0.339559,3.282399 1.131862,4.074703 v 0 c 0.339558,0.113186 0.565931,0.226372 0.905489,0.339558 v 8.262592 c -0.339558,0.113186 -0.679117,0.113186 -0.905489,0.339559 -0.679118,0.452745 -1.131862,1.018676 -1.358235,1.810979 -0.226372,0.792303 -0.113186,1.584607 0.339559,2.263724 0.452745,0.679117 1.018676,1.131862 1.810979,1.358234 0.226372,0.113186 0.565931,0.113186 0.792303,0.113186 0.565931,0 1.018676,-0.113186 1.471421,-0.452745 0.339558,-0.113186 0.565931,-0.339558 0.792303,-0.679117 l 7.13073,4.074703 c -0.113186,0.339559 -0.226372,0.679117 -0.226372,1.018676 0,1.697793 1.358234,2.942841 2.942841,2.942841 1.584606,0 2.942841,-1.358234 2.942841,-2.942841 0,-0.339559 -0.113187,-0.679117 -0.226373,-1.018676 l 7.13073,-4.074703 c 0.226373,0.226373 0.452745,0.452745 0.792304,0.679117 v 0 c 0.452744,0.226373 1.018675,0.452745 1.47142,0.452745 0.792304,0 1.697793,-0.339558 2.263724,-1.018676 l 3.848331,2.263724 c -0.113187,0.339559 -0.113187,0.679117 0,1.131862 0.113186,0.565931 0.452744,1.018676 1.018675,1.245048 0.339559,0.226373 0.679117,0.339559 1.018676,0.339559 0.226372,0 0.339559,0 0.565931,-0.113186 0.565931,-0.113186 1.018676,-0.452745 1.245048,-1.018676 0.339559,-0.452745 0.339559,-1.018676 0.226372,-1.584607 -0.339558,-0.679117 -0.679117,-1.245048 -1.131862,-1.47142 z M 10.752688,18.000981 c 0.339559,0.226373 0.679117,0.339559 1.018676,0.339559 0.226372,0 0.339558,0 0.565931,-0.113186 0.565931,-0.113186 1.018676,-0.452745 1.245048,-1.018676 0.565931,-1.018676 0.226372,-2.37691 -0.792303,-2.942841 -1.018676,-0.565931 -2.37691,-0.226372 -2.9428414,0.792303 -0.3395585,0.452745 -0.3395585,1.018676 -0.2263723,1.584607 0.2263723,0.679117 0.5659307,1.131862 1.1318617,1.358234 z M 17.770232,3.0604043 C 18.562535,2.6076595 18.788908,1.5889838 18.336163,0.79668047 17.883418,0.00437714 16.864743,-0.22199525 16.072439,0.23074952 15.280136,0.68349428 15.053763,1.70217 15.506508,2.4944733 c 0.452745,0.6791172 1.471421,1.0186758 2.263724,0.565931 z M 46.519525,52.862328 c -0.792304,0.452745 -1.018676,1.471421 -0.565931,2.263724 0.452744,0.792303 1.47142,1.018676 2.263723,0.565931 0.792304,-0.452745 1.018676,-1.47142 0.565931,-2.263724 -0.452744,-0.792303 -1.47142,-1.018675 -2.263723,-0.565931 z m -28.749293,0 c -0.792303,-0.452744 -1.810979,-0.226372 -2.263724,0.565931 -0.452745,0.792304 -0.226372,1.810979 0.565931,2.263724 0.792304,0.452745 1.810979,0.226372 2.263724,-0.565931 0.452745,-0.792303 0.226372,-1.810979 -0.565931,-2.263724 z M 46.519525,3.0604043 c 0.792303,0.4527448 1.810979,0.2263724 2.263723,-0.565931 C 49.235993,1.70217 49.009621,0.68349428 48.217317,0.23074952 47.425014,-0.22199525 46.406338,0.00437714 45.953594,0.79668047 45.387663,1.4757976 45.727221,2.4944733 46.519525,3.0604043 Z M 62.591964,26.263573 c -0.90549,0 -1.697793,0.792304 -1.697793,1.697793 0,0.90549 0.792303,1.697793 1.697793,1.697793 0.905489,0 1.697793,-0.792303 1.697793,-1.697793 -0.113187,-0.905489 -0.792304,-1.697793 -1.697793,-1.697793 z m -60.8941711,0 C 0.79230334,26.263573 0,27.055877 0,27.961366 c 0,0.90549 0.79230334,1.697793 1.6977929,1.697793 0.9054895,0 1.6977928,-0.792303 1.6977928,-1.697793 C 3.2823995,27.055877 2.6032824,26.263573 1.6977929,26.263573 Z m 42.5580081,-2.37691 c 0.452745,0 1.018676,-0.113186 1.47142,-0.452744 1.471421,-0.792304 1.924166,-2.603283 1.131862,-4.074703 C 46.06678,17.887795 44.255801,17.43505 42.78438,18.227354 v 0 c -0.679117,0.452744 -1.131862,1.018675 -1.358234,1.810979 -0.226372,0.792303 -0.113186,1.584606 0.339559,2.263724 0.452744,1.018675 1.47142,1.584606 2.490096,1.584606 z"
     style="d:path('M 28.4 5.9 C 29.4 5.9 30.3 5.1 30.3 4 C 30.3 3 29.5 2.1 28.4 2.1 C 27.4 2.1 26.5 2.9 26.5 4 C 26.5 5.1 27.3 5.9 28.4 5.9 Z M 28.4 43.6 C 27.4 43.6 26.5 44.4 26.5 45.5 C 26.5 46.5 27.3 47.4 28.4 47.4 C 29.4 47.4 30.3 46.6 30.3 45.5 C 30.3 44.5 29.4 43.6 28.4 43.6 Z M 10.9 33.3 C 10.4 33.2 9.9 33.2 9.5 33.5 C 9.1 33.8 8.8 34.2 8.6 34.6 C 8.5 35.1 8.5 35.6 8.8 36 C 9.2 36.6 9.8 36.9 10.4 36.9 C 10.7 36.9 11 36.8 11.3 36.6 C 11.7 36.3 12.1 35.9 12.2 35.5 C 12.3 35 12.3 34.5 12 34.1 C 11.8 33.7 11.4 33.4 10.9 33.3 Z M 46.8 12.6 C 46.3 12.5 45.8 12.5 45.4 12.8 C 44.5 13.3 44.2 14.5 44.7 15.4 C 45 15.8 45.4 16.1 45.8 16.3 C 46 16.3 46.1 16.4 46.3 16.4 C 46.6 16.4 46.9 16.3 47.2 16.1 C 47.6 15.8 48 15.4 48.1 15 C 48.2 14.5 48.2 14 47.9 13.6 C 47.7 13 47.3 12.7 46.8 12.6 Z M 47.3 33.5 C 46.9 33.2 46.4 33.2 45.9 33.3 C 45.6 33.4 45.3 33.6 45.1 33.8 L 41.7 31.8 C 41.9 31.3 41.9 30.8 41.8 30.3 C 41.6 29.6 41.2 29.1 40.6 28.7 C 39.3 28 37.7 28.4 37 29.7 C 36.6 30.3 36.6 31 36.7 31.7 C 36.7 31.8 36.7 31.8 36.8 31.9 L 30.5 35.5 C 30 34.9 29.3 34.6 28.5 34.6 C 27.7 34.6 27 35 26.5 35.5 L 20.2 31.9 C 20.2 31.8 20.2 31.8 20.3 31.7 C 20.5 31 20.4 30.3 20 29.7 C 19.6 29.1 19.1 28.7 18.4 28.5 C 18.3 28.5 18.3 28.5 18.2 28.5 V 21.2 C 18.3 21.2 18.3 21.2 18.4 21.2 C 19.1 21 19.6 20.6 20 20 C 20.4 19.4 20.4 18.7 20.3 18 C 20.3 17.9 20.3 17.9 20.2 17.8 L 26.5 14.2 C 27 14.8 27.7 15.1 28.5 15.1 C 30 15.1 31.1 13.9 31.1 12.5 S 29.9 9.89999 28.5 9.89999 S 25.9 11.1 25.9 12.5 C 25.9 12.8 26 13.1 26.1 13.4 L 19.8 17 C 19.6 16.8 19.4 16.6 19.1 16.4 C 18.5 16 17.8 16 17.1 16.1 C 16.4 16.3 15.9 16.7 15.5 17.3 C 14.8 18.6 15.2 20.2 16.5 20.9 L 16.5 20.9 C 16.8 21 17 21.1 17.3 21.2 V 28.5 C 17 28.6 16.7 28.6 16.5 28.8 C 15.9 29.2 15.5 29.7 15.3 30.4 C 15.1 31.1 15.2 31.8 15.6 32.4 C 16 33 16.5 33.4 17.2 33.6 C 17.4 33.7 17.7 33.7 17.9 33.7 C 18.4 33.7 18.8 33.6 19.2 33.3 C 19.5 33.2 19.7 33 19.9 32.7 L 26.2 36.3 C 26.1 36.6 26 36.9 26 37.2 C 26 38.7 27.2 39.8 28.6 39.8 S 31.2 38.6 31.2 37.2 C 31.2 36.9 31.1 36.6 31 36.3 L 37.3 32.7 C 37.5 32.9 37.7 33.1 38 33.3 L 38 33.3 C 38.4 33.5 38.9 33.7 39.3 33.7 C 40 33.7 40.8 33.4 41.3 32.8 L 44.7 34.8 C 44.6 35.1 44.6 35.4 44.7 35.8 C 44.8 36.3 45.1 36.7 45.6 36.9 C 45.9 37.1 46.2 37.2 46.5 37.2 C 46.7 37.2 46.8 37.2 47 37.1 C 47.5 37 47.9 36.7 48.1 36.2 C 48.4 35.8 48.4 35.3 48.3 34.8 C 48 34.2 47.7 33.7 47.3 33.5 Z M 9.5 16 C 9.8 16.2 10.1 16.3 10.4 16.3 C 10.6 16.3 10.7 16.3 10.9 16.2 C 11.4 16.1 11.8 15.8 12 15.3 C 12.5 14.4 12.2 13.2 11.3 12.7 C 10.4 12.2 9.2 12.5 8.7 13.4 C 8.4 13.8 8.4 14.3 8.5 14.8 C 8.7 15.4 9 15.8 9.5 16 Z M 15.7 2.8 C 16.4 2.4 16.6 1.5 16.2 0.8 C 15.8 0.1 14.9 -0.1 14.2 0.3 C 13.5 0.7 13.3 1.6 13.7 2.3 C 14.1 2.9 15 3.2 15.7 2.8 Z M 41.1 46.8 C 40.4 47.2 40.2 48.1 40.6 48.8 C 41 49.5 41.9 49.7 42.6 49.3 C 43.3 48.9 43.5 48 43.1 47.3 C 42.7 46.6 41.8 46.4 41.1 46.8 Z M 15.7 46.8 C 15 46.4 14.1 46.6 13.7 47.3 C 13.3 48 13.5 48.9 14.2 49.3 C 14.9 49.7 15.8 49.5 16.2 48.8 C 16.6 48.1 16.4 47.2 15.7 46.8 Z M 41.1 2.8 C 41.8 3.2 42.7 3 43.1 2.3 C 43.5 1.6 43.3 0.7 42.6 0.3 C 41.9 -0.1 41 0.0999999 40.6 0.8 C 40.1 1.4 40.4 2.3 41.1 2.8 Z M 55.3 23.3 C 54.5 23.3 53.8 24 53.8 24.8 C 53.8 25.6 54.5 26.3 55.3 26.3 C 56.1 26.3 56.8 25.6 56.8 24.8 C 56.7 24 56.1 23.3 55.3 23.3 Z M 1.5 23.3 C 0.7 23.3 0 24 0 24.8 C 0 25.6 0.7 26.3 1.5 26.3 S 3 25.6 3 24.8 C 2.9 24 2.3 23.3 1.5 23.3 Z M 39.1 21.2 C 39.5 21.2 40 21.1 40.4 20.8 C 41.7 20.1 42.1 18.5 41.4 17.2 C 40.7 15.9 39.1 15.5 37.8 16.2 L 37.8 16.2 C 37.2 16.6 36.8 17.1 36.6 17.8 C 36.4 18.5 36.5 19.2 36.9 19.8 C 37.3 20.7 38.2 21.2 39.1 21.2 Z');text-align:center;inline-size:200px;fill:#ff8600;fill-opacity:1;stroke-width:1.13186" /><path
     id="logo__quanta"
     class="_riw402"
     fill="currentColor"
     d="m 350.76401,15.737258 c 0,1.245048 -1.01868,2.037351 -2.26373,2.037351 -1.01867,0 -2.03735,-0.792303 -2.03735,-2.037351 0,-1.358235 0.90549,-2.263724 2.15054,-2.263724 1.35823,0 2.15054,0.905489 2.15054,2.263724 z M 96.774194,32.375628 c 0.679117,-1.471421 0.905489,-2.942841 0.905489,-4.75382 0,-3.2824 -1.131862,-5.885682 -3.282399,-8.03622 -2.150538,-2.150538 -4.753821,-3.169213 -7.923034,-3.169213 -3.169213,0 -5.772496,1.018675 -7.923033,3.169213 -2.150538,2.150538 -3.2824,4.75382 -3.2824,8.03622 0,3.282399 1.131862,5.885682 3.2824,8.036219 2.150537,2.150538 4.75382,3.169214 7.923033,3.169214 3.056027,0 5.546124,-1.018676 7.696661,-2.942841 l 2.942841,1.924165 2.490096,-3.735144 z m -3.848331,-2.490097 -2.603282,-1.697792 -2.490097,3.735144 2.603283,1.697793 c -1.131862,0.792303 -2.37691,1.245048 -3.961517,1.245048 -2.037351,0 -3.621958,-0.679117 -4.867006,-1.924165 -1.245048,-1.358235 -1.810979,-3.056028 -1.810979,-5.206565 0,-2.150538 0.565931,-3.848331 1.810979,-5.206565 1.245048,-1.358234 2.829655,-1.924165 4.867006,-1.924165 2.037352,0 3.621958,0.679117 4.867006,1.924165 1.245048,1.245048 1.810979,3.056027 1.810979,5.206565 0,0.679117 -0.113186,1.47142 -0.226372,2.150537 z m 23.882287,0.90549 c 0,1.358234 -0.33956,2.37691 -1.01868,3.169213 -0.67911,0.679117 -1.69779,1.131862 -2.82965,1.131862 -1.13186,0 -2.15054,-0.339558 -2.82966,-1.131862 -0.67911,-0.679117 -1.01867,-1.810979 -1.01867,-3.169213 v -9.620826 h -4.41426 v 10.186757 c 0,2.263724 0.67911,4.187889 1.92416,5.432937 1.24505,1.358234 2.82966,1.924165 4.86701,1.924165 2.49009,0 4.0747,-0.452744 5.43294,-1.924165 v 1.697793 h 4.41426 V 21.283381 h -4.41426 v 9.50764 z m 46.51952,-9.50764 c -2.49009,0 -4.0747,0.452745 -5.43293,1.924165 v -1.697793 h -4.41426 v 17.430674 h 4.41426 V 29.3196 c 0,-1.358234 0.33956,-2.37691 1.01867,-3.169213 0.67912,-0.679117 1.6978,-1.131862 2.82966,-1.131862 1.24505,0 2.15053,0.339559 2.82965,1.131862 0.67912,0.679117 1.01868,1.810979 1.01868,3.169213 v 9.620827 h 4.41426 V 28.75367 c 0,-2.263724 -0.67912,-4.18789 -1.92417,-5.432938 -1.24504,-1.358234 -2.82965,-2.037351 -4.75382,-2.037351 z m -22.0713,0 v 1.697793 c -0.90549,-0.90549 -3.05603,-1.924165 -5.43294,-1.924165 -2.37691,0 -4.30108,0.792303 -5.88568,2.490096 -1.58461,1.697793 -2.37691,3.84833 -2.37691,6.451613 0,2.603282 0.7923,4.75382 2.37691,6.451613 1.5846,1.697792 3.50877,2.490096 5.88568,2.490096 1.47142,0 3.39559,-0.226373 5.43294,-1.810979 v 1.584606 h 4.41426 V 21.283381 Z m -1.35824,12.450481 c -0.90549,0.905489 -2.03735,1.358234 -3.16921,1.358234 -1.24505,0 -2.26372,-0.452745 -3.16921,-1.358234 -0.90549,-0.90549 -1.35824,-2.150538 -1.35824,-3.735144 0,-1.584607 0.45275,-2.829655 1.35824,-3.735145 0.90549,-0.905489 2.03735,-1.358234 3.16921,-1.358234 1.24505,0 2.26372,0.452745 3.2824,1.358234 0.90549,0.90549 1.35823,2.150538 1.35823,3.735145 -0.11318,1.584606 -0.56593,2.829654 -1.47142,3.735144 z m 63.9502,-12.450481 v 1.697793 c -0.90549,-0.90549 -3.05603,-1.924165 -5.43294,-1.924165 -2.37691,0 -4.30107,0.792303 -5.88568,2.490096 -1.58461,1.697793 -2.37691,3.84833 -2.37691,6.451613 0,2.603282 0.7923,4.75382 2.37691,6.451613 1.58461,1.697792 3.50877,2.490096 5.88568,2.490096 1.47142,0 3.39559,-0.226373 5.43294,-1.810979 v 1.584606 h 4.41426 V 21.283381 Z m -1.35823,12.450481 c -0.90549,0.905489 -2.03736,1.358234 -3.16922,1.358234 -1.24505,0 -2.26372,-0.452745 -3.16921,-1.358234 -0.90549,-0.90549 -1.35823,-2.150538 -1.35823,-3.735144 0,-1.584607 0.45274,-2.829655 1.35823,-3.735145 0.7923,-1.018675 1.92416,-1.47142 3.05603,-1.47142 1.24504,0 2.26372,0.452745 3.2824,1.358234 0.90549,0.90549 1.35823,2.150538 1.35823,3.735144 0,1.697793 -0.45274,2.942841 -1.35823,3.848331 z m -19.80759,1.245048 c -1.24505,0 -2.15053,-0.792303 -2.15053,-2.37691 v -7.243916 h 4.64063 v -3.621958 h -4.64063 v -4.527448 h -4.18789 v 4.527448 3.621958 7.243916 c 0,4.187889 2.37691,6.225241 5.99886,6.112054 1.24505,0 2.26373,-0.226372 3.39559,-0.679117 l -1.13186,-3.508772 c -0.56593,0.339559 -1.35824,0.452745 -1.92417,0.452745 z"
     style="d:path('M 309.9 14 C 309.9 15.1 309 15.8 307.9 15.8 C 307 15.8 306.1 15.1 306.1 14 C 306.1 12.8 306.9 12 308 12 C 309.2 12 309.9 12.8 309.9 14 Z M 85.5 28.7 C 86.1 27.4 86.3 26.1 86.3 24.5 C 86.3 21.6 85.3 19.3 83.4 17.4 C 81.5 15.5 79.2 14.6 76.4 14.6 S 71.3 15.5 69.4 17.4 C 67.5 19.3 66.5 21.6 66.5 24.5 C 66.5 27.4 67.5 29.7 69.4 31.6 C 71.3 33.5 73.6 34.4 76.4 34.4 C 79.1 34.4 81.3 33.5 83.2 31.8 L 85.8 33.5 L 88 30.2 L 85.5 28.7 Z M 82.1 26.5 L 79.8 25 L 77.6 28.3 L 79.9 29.8 C 78.9 30.5 77.8 30.9 76.4 30.9 C 74.6 30.9 73.2 30.3 72.1 29.2 C 71 28 70.5 26.5 70.5 24.6 C 70.5 22.7 71 21.2 72.1 20 C 73.2 18.8 74.6 18.3 76.4 18.3 C 78.2 18.3 79.6 18.9 80.7 20 C 81.8 21.1 82.3 22.7 82.3 24.6 C 82.3 25.2 82.2 25.9 82.1 26.5 Z M 103.2 27.3 C 103.2 28.5 102.9 29.4 102.3 30.1 C 101.7 30.7 100.8 31.1 99.8 31.1 S 97.9 30.8 97.3 30.1 C 96.7 29.5 96.4 28.5 96.4 27.3 V 18.8 H 92.5 V 27.8 C 92.5 29.8 93.1 31.5 94.2 32.6 C 95.3 33.8 96.7 34.3 98.5 34.3 C 100.7 34.3 102.1 33.9 103.3 32.6 V 34.1 H 107.2 V 18.9 H 103.3 V 27.3 Z M 144.3 18.9 C 142.1 18.9 140.7 19.3 139.5 20.6 V 19.1 H 135.6 V 34.5 H 139.5 V 26 C 139.5 24.8 139.8 23.9 140.4 23.2 C 141 22.6 141.9 22.2 142.9 22.2 C 144 22.2 144.8 22.5 145.4 23.2 C 146 23.8 146.3 24.8 146.3 26 V 34.5 H 150.2 V 25.5 C 150.2 23.5 149.6 21.8 148.5 20.7 C 147.4 19.5 146 18.9 144.3 18.9 Z M 124.8 18.9 V 20.4 C 124 19.6 122.1 18.7 120 18.7 C 117.9 18.7 116.2 19.4 114.8 20.9 C 113.4 22.4 112.7 24.3 112.7 26.6 C 112.7 28.9 113.4 30.8 114.8 32.3 C 116.2 33.8 117.9 34.5 120 34.5 C 121.3 34.5 123 34.3 124.8 32.9 V 34.3 H 128.7 V 18.9 H 124.8 Z M 123.6 29.9 C 122.8 30.7 121.8 31.1 120.8 31.1 C 119.7 31.1 118.8 30.7 118 29.9 C 117.2 29.1 116.8 28 116.8 26.6 C 116.8 25.2 117.2 24.1 118 23.3 C 118.8 22.5 119.8 22.1 120.8 22.1 C 121.9 22.1 122.8 22.5 123.7 23.3 C 124.5 24.1 124.9 25.2 124.9 26.6 C 124.8 28 124.4 29.1 123.6 29.9 Z M 180.1 18.9 V 20.4 C 179.3 19.6 177.4 18.7 175.3 18.7 C 173.2 18.7 171.5 19.4 170.1 20.9 C 168.7 22.4 168 24.3 168 26.6 C 168 28.9 168.7 30.8 170.1 32.3 C 171.5 33.8 173.2 34.5 175.3 34.5 C 176.6 34.5 178.3 34.3 180.1 32.9 V 34.3 H 184 V 18.9 H 180.1 Z M 178.9 29.9 C 178.1 30.7 177.1 31.1 176.1 31.1 C 175 31.1 174.1 30.7 173.3 29.9 C 172.5 29.1 172.1 28 172.1 26.6 C 172.1 25.2 172.5 24.1 173.3 23.3 C 174 22.4 175 22 176 22 C 177.1 22 178 22.4 178.9 23.2 C 179.7 24 180.1 25.1 180.1 26.5 C 180.1 28 179.7 29.1 178.9 29.9 Z M 161.4 31 C 160.3 31 159.5 30.3 159.5 28.9 V 22.5 H 163.6 V 19.3 H 159.5 V 15.3 H 155.8 V 19.3 V 22.5 V 28.9 C 155.8 32.6 157.9 34.4 161.1 34.3 C 162.2 34.3 163.1 34.1 164.1 33.7 L 163.1 30.6 C 162.6 30.9 161.9 31 161.4 31 Z');text-align:center;inline-size:200px;fill:#ff8600;fill-opacity:1;stroke-width:1.13186" /><path
     id="logo__magazine"
     class="_b4g2te"
     fill="currentColor"
     d="m 247.08546,37.808565 -0.11319,1.131862 c -1.24505,0 -2.71647,-0.113186 -4.41426,-0.113186 -1.69779,0 -3.05603,0.113186 -4.0747,0.113186 v -1.131862 c 1.81097,-0.113186 2.26372,-0.339559 2.26372,-1.018676 0.11319,-0.905489 0.11319,-2.716468 0.11319,-5.772496 0,-4.980192 0,-5.546123 -0.33956,-6.112054 -0.45275,-1.018676 -1.35824,-1.584607 -2.71647,-1.584607 -1.81098,0 -3.39559,1.131862 -4.18789,2.603283 -0.22637,0.565931 -0.45275,1.018675 -0.45275,1.697793 v 5.319751 c 0,1.47142 0,2.942841 0.11319,3.84833 0,0.792303 0.45275,1.018676 2.4901,1.018676 l -0.11319,1.131862 c -1.01868,0 -2.82965,-0.113186 -4.41426,-0.113186 -1.58461,0 -2.94284,0.113186 -3.96152,0.113186 v -1.131862 c 1.81098,-0.113186 2.26373,-0.226373 2.26373,-1.131862 0.11318,-1.245048 0.11318,-2.490096 0.11318,-4.980193 v -3.169213 c 0,-2.716468 0,-3.169213 -0.22637,-3.735144 -0.45275,-1.018676 -1.24505,-1.471421 -2.60328,-1.471421 -1.6978,0 -3.39559,1.018676 -4.30108,2.716469 -0.33956,0.679117 -0.45274,1.018676 -0.45274,1.924165 v 5.206565 c 0,1.584607 0,2.829655 0.11318,3.735144 0.11319,0.792304 0.45275,0.90549 2.37691,1.018676 l -0.11318,1.018676 c -0.90549,0 -2.82966,-0.113186 -4.30108,-0.113186 -1.47142,0 -2.94284,0.113186 -4.18789,0.113186 v -1.131862 c 2.03735,0 2.37691,-0.226373 2.37691,-1.131862 0,-1.018676 0.11319,-2.603282 0.11319,-4.75382 v -3.2824 c 0,-2.150537 0,-3.84833 -0.11319,-4.867006 0,-0.565931 -0.33956,-0.679117 -2.49009,-0.679117 l 0.11318,-1.018676 c 1.92417,0 4.07471,-0.226372 5.88568,-0.565931 0.11319,0.679117 0.22638,2.490096 0.22638,3.056027 1.47142,-1.47142 3.62196,-3.282399 6.45161,-3.282399 2.26372,0 3.2824,0.905489 3.84833,1.697793 0.33956,0.452745 0.56593,1.018675 0.67912,1.47142 1.35823,-1.358234 3.39558,-3.169213 6.45161,-3.169213 2.37691,0 3.73515,1.245048 4.30108,2.263724 0.45274,0.792303 0.56593,1.697793 0.56593,2.603282 v 10.639502 c 0.11318,0.792303 0.33956,0.90549 2.71647,1.018676 z m 22.75042,-2.829655 1.01868,0.452745 c -0.56594,2.829655 -2.15054,3.84833 -3.96152,3.84833 -2.03735,0 -2.82966,-1.245048 -3.05603,-2.942841 -1.69779,1.924166 -3.84833,2.942841 -5.65931,2.942841 -3.05602,0 -4.867,-2.150537 -4.867,-4.867006 0,-1.584607 0.67911,-2.942841 2.26372,-3.621958 2.71647,-1.131862 6.79117,-2.37691 8.37578,-3.508772 v -1.584607 c 0,-1.697793 -0.79231,-3.395585 -3.05603,-3.395585 -2.37691,0 -3.39558,1.245048 -3.39558,2.829654 0,0.452745 0.11318,0.90549 0.11318,1.245049 0.11319,0.339558 -0.11318,0.679117 -0.33956,0.792303 -0.33956,0.226372 -0.7923,0.452745 -1.35823,0.452745 -0.90549,0 -1.69779,-0.452745 -1.69779,-1.810979 0,-2.037352 2.94284,-4.640634 7.24391,-4.640634 3.39559,0 4.86701,1.47142 5.31975,2.263724 0.33956,0.56593 0.56593,1.358234 0.56593,2.037351 v 10.073571 c 0,1.47142 0.45275,1.697793 0.90549,1.697793 0.56593,0.113186 1.13187,-0.679117 1.58461,-2.263724 z m -6.11205,-6.451613 c -1.13187,0.565931 -3.16922,1.471421 -4.64064,2.263724 -1.24505,0.679117 -2.03735,1.245048 -2.03735,3.056027 0,1.924165 1.01868,3.395586 2.82966,3.395586 1.92416,0 3.05602,-1.131862 3.73514,-2.603283 0.11319,-0.452744 0.22637,-1.131861 0.22637,-1.697792 v -4.414262 z m 25.80645,2.037352 c -1.47142,0 -3.16922,-0.113187 -4.18789,-0.113187 v 1.018676 l 1.69779,0.113186 c 1.35824,0.113186 1.58461,0.339559 1.58461,1.471421 0,1.131862 0,2.716468 -0.11319,3.621958 -0.11318,0.905489 -1.24505,1.47142 -2.82965,1.47142 -1.6978,0 -3.16922,-0.565931 -4.30108,-2.037351 -1.01867,-1.245048 -1.47142,-3.508772 -1.47142,-5.772496 0,-2.490096 0.56593,-4.414261 1.58461,-5.772496 0.90549,-1.358234 2.26372,-2.037351 3.96151,-2.037351 2.94285,0 4.64064,1.924165 4.9802,5.65931 h 1.01867 c -0.11318,-2.37691 0.22637,-5.432938 0.45275,-6.451613 l -0.90549,-0.339559 -0.56593,1.471421 c -0.56593,-0.565931 -2.03735,-1.584607 -4.86701,-1.584607 -1.81098,0 -3.39559,0.339558 -4.75382,1.131862 -2.71647,1.47142 -4.30107,4.414261 -4.30107,7.923033 0,2.716469 0.67911,4.75382 1.92416,6.225241 1.35823,1.697793 3.62196,2.603282 6.90436,2.603282 1.35823,0 2.82965,-0.339558 4.0747,-0.679117 1.13186,-0.339559 2.03735,-0.679117 2.71647,-0.792303 -0.11319,-0.565931 -0.22637,-1.471421 -0.22637,-2.829655 0,-0.792303 0,-1.924165 0.11318,-2.603283 0,-0.565931 0.33956,-0.679117 1.6978,-0.905489 v -1.018676 c -1.24505,0.226373 -2.71647,0.226373 -4.18789,0.226373 z m 26.71194,4.414261 1.01867,0.452745 c -0.56593,2.829655 -2.15053,3.84833 -3.96151,3.84833 -2.03735,0 -2.82966,-1.245048 -3.05603,-2.942841 -1.69779,1.924166 -3.84833,2.942841 -5.65931,2.942841 -3.05603,0 -4.86701,-2.150537 -4.86701,-4.867006 0,-1.584607 0.67912,-2.942841 2.26373,-3.621958 2.71647,-1.131862 6.79117,-2.37691 8.37578,-3.508772 v -1.584607 c 0,-1.697793 -0.79231,-3.395585 -3.05603,-3.395585 -2.37691,0 -3.39559,1.245048 -3.39559,2.829654 0,0.452745 0.11319,0.90549 0.11319,1.245049 0.11319,0.339558 -0.11319,0.679117 -0.33956,0.792303 -0.33956,0.226372 -0.7923,0.452745 -1.35823,0.452745 -0.90549,0 -1.6978,-0.452745 -1.6978,-1.810979 0,-2.037352 2.94285,-4.640634 7.24392,-4.640634 3.39559,0 4.86701,1.47142 5.31975,2.263724 0.33956,0.56593 0.56593,1.358234 0.56593,2.037351 v 10.073571 c 0,1.47142 0.45275,1.697793 0.90549,1.697793 0.56593,0.113186 1.13186,-0.679117 1.58461,-2.263724 z m -6.11206,-6.451613 c -1.13186,0.565931 -3.16921,1.471421 -4.64063,2.263724 -1.24505,0.679117 -2.03735,1.245048 -2.03735,3.056027 0,1.924165 1.01867,3.395586 2.82965,3.395586 1.92417,0 3.05603,-1.131862 3.73515,-2.603283 0.11318,-0.452744 0.22637,-1.131861 0.22637,-1.697792 v -4.414262 z m 23.88229,8.715337 c -1.13186,0.226372 -3.16921,0.339558 -6.33843,0.339558 2.03736,-3.169213 8.03622,-12.224108 8.94171,-13.582343 0.45275,-0.792303 0.90549,-1.584606 1.01868,-2.37691 -1.58461,0 -2.94284,0.113187 -5.99887,0.113187 h -3.39559 c -2.26372,0 -3.62195,-0.113187 -4.30107,-0.452745 0,2.37691 -0.22637,4.980192 -0.45275,6.564799 l 1.01868,-0.226372 c 0.22637,-0.90549 0.45275,-1.924166 0.7923,-2.942841 0.45275,-1.245048 1.01868,-1.584607 2.71647,-1.697793 1.58461,-0.113186 3.2824,-0.113186 4.98019,-0.113186 -1.01867,2.037351 -5.88568,9.960384 -10.18675,15.166949 l 0.45274,0.792304 c 0.67912,0 1.92417,-0.113187 4.18789,-0.113187 4.30108,0 8.82852,0.113187 10.29994,0.226373 0.11319,-1.810979 0.45275,-4.867006 0.67912,-6.564799 l -1.01867,-0.226373 c -0.90549,3.961517 -1.81098,4.980193 -3.39559,5.093379 z m 16.75156,-0.565931 c 0,-0.792303 -0.11319,-2.150538 -0.11319,-4.640634 v -4.640634 c 0,-2.942841 0.11319,-5.206565 0.11319,-6.112054 -1.81098,0.452745 -4.41426,0.565931 -6.33843,0.679117 v 1.018676 c 2.15054,-0.113186 2.4901,0 2.4901,0.565931 0,0.565931 0.11318,1.924165 0.11318,4.074703 v 4.414261 c 0,2.263724 -0.11318,3.961517 -0.11318,4.640634 0,0.679117 -0.33956,1.018676 -2.71647,1.131862 v 1.131862 c 1.24505,0 2.37691,-0.113186 4.30107,-0.113186 1.92417,0 3.39559,0.113186 4.52745,0.113186 v -1.131862 c -1.81098,-0.113186 -2.26372,-0.226373 -2.26372,-1.131862 z m 26.03282,0 V 26.150387 c 0,-0.905489 -0.11319,-1.810979 -0.56593,-2.490096 -0.56593,-1.245048 -1.92417,-2.37691 -4.52745,-2.37691 -2.82965,0 -4.75382,1.697793 -6.22524,3.056027 0,-0.565931 -0.11318,-2.150538 -0.22637,-2.942841 -1.81098,0.339559 -3.84833,0.565931 -5.7725,0.565931 l -0.11318,1.018676 c 2.03735,0 2.37691,0.113186 2.37691,0.679117 0.11318,1.018676 0.11318,2.716469 0.11318,4.867006 v 3.508772 c 0,1.924165 -0.11318,3.395586 -0.11318,4.527448 0,0.905489 -0.33956,1.018675 -2.37691,1.131862 v 1.131862 c 1.13186,0 2.49009,-0.113187 4.18789,-0.113187 1.47142,0 3.39558,0.113187 4.41426,0.113187 l 0.11318,-1.131862 c -2.03735,-0.113187 -2.37691,-0.226373 -2.37691,-1.018676 -0.11318,-0.90549 -0.11318,-2.490096 -0.11318,-4.187889 V 27.84818 c 0,-0.90549 0.11318,-1.47142 0.45274,-2.037351 0.90549,-1.584607 2.37691,-2.490097 4.30108,-2.490097 1.35823,0 2.15054,0.565931 2.71647,1.471421 0.33956,0.679117 0.45274,1.131862 0.45274,6.112054 0,3.169214 -0.11318,4.980193 -0.11318,5.772496 -0.11319,0.792303 -0.45275,0.905489 -2.26373,1.018676 v 1.131862 c 0.90549,0 2.26373,-0.113187 4.0747,-0.113187 1.6978,0 3.16922,0.113187 4.41427,0.113187 l 0.11318,-1.131862 c -2.71647,0 -2.94284,-0.113187 -2.94284,-1.018676 z M 398.98132,33.620676 400,34.186607 c -1.24505,3.621958 -3.73514,5.093378 -7.13073,5.093378 -3.05603,0 -4.98019,-0.905489 -6.33843,-2.716468 -1.01867,-1.358235 -1.69779,-3.621958 -1.69779,-5.998868 0,-4.980193 2.82966,-9.394454 8.37578,-9.394454 5.77249,0 6.79117,4.527447 6.79117,6.904357 0,0.792304 -0.22637,1.358235 -0.7923,1.584607 -0.67912,0.226372 -2.60329,0.452745 -5.20657,0.565931 -1.35823,0 -3.50877,0 -5.20656,0 -0.11319,2.150538 0.45274,4.074703 1.24505,5.206565 0.90548,1.358234 2.15053,2.037351 3.96151,2.037351 2.4901,0 3.96152,-1.131862 4.98019,-3.84833 z m -10.07357,-4.640634 h 3.2824 c 1.92417,0 2.94284,-0.113186 3.50877,-0.226372 0.56594,-0.113187 0.79231,-0.565931 0.79231,-1.358235 0,-2.150537 -0.90549,-4.980192 -3.50877,-4.980192 -2.71647,0 -3.96152,3.282399 -4.07471,6.564799 z"
     style="d:path('M 218.3 33.5 L 218.2 34.5 C 217.1 34.5 215.8 34.4 214.3 34.4 C 212.8 34.4 211.6 34.5 210.7 34.5 V 33.5 C 212.3 33.4 212.7 33.2 212.7 32.6 C 212.8 31.8 212.8 30.2 212.8 27.5 C 212.8 23.1 212.8 22.6 212.5 22.1 C 212.1 21.2 211.3 20.7 210.1 20.7 C 208.5 20.7 207.1 21.7 206.4 23 C 206.2 23.5 206 23.9 206 24.5 V 29.2 C 206 30.5 206 31.8 206.1 32.6 C 206.1 33.3 206.5 33.5 208.3 33.5 L 208.2 34.5 C 207.3 34.5 205.7 34.4 204.3 34.4 C 202.9 34.4 201.7 34.5 200.8 34.5 V 33.5 C 202.4 33.4 202.8 33.3 202.8 32.5 C 202.9 31.4 202.9 30.3 202.9 28.1 V 25.3 C 202.9 22.9 202.9 22.5 202.7 22 C 202.3 21.1 201.6 20.7 200.4 20.7 C 198.9 20.7 197.4 21.6 196.6 23.1 C 196.3 23.7 196.2 24 196.2 24.8 V 29.4 C 196.2 30.8 196.2 31.9 196.3 32.7 C 196.4 33.4 196.7 33.5 198.4 33.6 L 198.3 34.5 C 197.5 34.5 195.8 34.4 194.5 34.4 C 193.2 34.4 191.9 34.5 190.8 34.5 V 33.5 C 192.6 33.5 192.9 33.3 192.9 32.5 C 192.9 31.6 193 30.2 193 28.3 V 25.4 C 193 23.5 193 22 192.9 21.1 C 192.9 20.6 192.6 20.5 190.7 20.5 L 190.8 19.6 C 192.5 19.6 194.4 19.4 196 19.1 C 196.1 19.7 196.2 21.3 196.2 21.8 C 197.5 20.5 199.4 18.9 201.9 18.9 C 203.9 18.9 204.8 19.7 205.3 20.4 C 205.6 20.8 205.8 21.3 205.9 21.7 C 207.1 20.5 208.9 18.9 211.6 18.9 C 213.7 18.9 214.9 20 215.4 20.9 C 215.8 21.6 215.9 22.4 215.9 23.2 V 32.6 C 216 33.3 216.2 33.4 218.3 33.5 Z M 238.4 31 L 239.3 31.4 C 238.8 33.9 237.4 34.8 235.8 34.8 C 234 34.8 233.3 33.7 233.1 32.2 C 231.6 33.9 229.7 34.8 228.1 34.8 C 225.4 34.8 223.8 32.9 223.8 30.5 C 223.8 29.1 224.4 27.9 225.8 27.3 C 228.2 26.3 231.8 25.2 233.2 24.2 V 22.8 C 233.2 21.3 232.5 19.8 230.5 19.8 C 228.4 19.8 227.5 20.9 227.5 22.3 C 227.5 22.7 227.6 23.1 227.6 23.4 C 227.7 23.7 227.5 24 227.3 24.1 C 227 24.3 226.6 24.5 226.1 24.5 C 225.3 24.5 224.6 24.1 224.6 22.9 C 224.6 21.1 227.2 18.8 231 18.8 C 234 18.8 235.3 20.1 235.7 20.8 C 236 21.3 236.2 22 236.2 22.6 V 31.5 C 236.2 32.8 236.6 33 237 33 C 237.5 33.1 238 32.4 238.4 31 Z M 233 25.3 C 232 25.8 230.2 26.6 228.9 27.3 C 227.8 27.9 227.1 28.4 227.1 30 C 227.1 31.7 228 33 229.6 33 C 231.3 33 232.3 32 232.9 30.7 C 233 30.3 233.1 29.7 233.1 29.2 V 25.3 Z M 255.8 27.1 C 254.5 27.1 253 27 252.1 27 L 252.1 27.9 L 253.6 28 C 254.8 28.1 255 28.3 255 29.3 C 255 30.3 255 31.7 254.9 32.5 C 254.8 33.3 253.8 33.8 252.4 33.8 C 250.9 33.8 249.6 33.3 248.6 32 C 247.7 30.9 247.3 28.9 247.3 26.9 C 247.3 24.7 247.8 23 248.7 21.8 C 249.5 20.6 250.7 20 252.2 20 C 254.8 20 256.3 21.7 256.6 25 L 257.5 25 C 257.4 22.9 257.7 20.2 257.9 19.3 L 257.1 19 L 256.6 20.3 C 256.1 19.8 254.8 18.9 252.3 18.9 C 250.7 18.9 249.3 19.2 248.1 19.9 C 245.7 21.2 244.3 23.8 244.3 26.9 C 244.3 29.3 244.9 31.1 246 32.4 C 247.2 33.9 249.2 34.7 252.1 34.7 C 253.3 34.7 254.6 34.4 255.7 34.1 C 256.7 33.8 257.5 33.5 258.1 33.4 C 258 32.9 257.9 32.1 257.9 30.9 C 257.9 30.2 257.9 29.2 258 28.6 C 258 28.1 258.3 28 259.5 27.8 L 259.5 26.9 C 258.4 27.1 257.1 27.1 255.8 27.1 Z M 279.4 31 L 280.3 31.4 C 279.8 33.9 278.4 34.8 276.8 34.8 C 275 34.8 274.3 33.7 274.1 32.2 C 272.6 33.9 270.7 34.8 269.1 34.8 C 266.4 34.8 264.8 32.9 264.8 30.5 C 264.8 29.1 265.4 27.9 266.8 27.3 C 269.2 26.3 272.8 25.2 274.2 24.2 V 22.8 C 274.2 21.3 273.5 19.8 271.5 19.8 C 269.4 19.8 268.5 20.9 268.5 22.3 C 268.5 22.7 268.6 23.1 268.6 23.4 C 268.7 23.7 268.5 24 268.3 24.1 C 268 24.3 267.6 24.5 267.1 24.5 C 266.3 24.5 265.6 24.1 265.6 22.9 C 265.6 21.1 268.2 18.8 272 18.8 C 275 18.8 276.3 20.1 276.7 20.8 C 277 21.3 277.2 22 277.2 22.6 V 31.5 C 277.2 32.8 277.6 33 278 33 C 278.5 33.1 279 32.4 279.4 31 Z M 274 25.3 C 273 25.8 271.2 26.6 269.9 27.3 C 268.8 27.9 268.1 28.4 268.1 30 C 268.1 31.7 269 33 270.6 33 C 272.3 33 273.3 32 273.9 30.7 C 274 30.3 274.1 29.7 274.1 29.2 V 25.3 Z M 295.1 33 C 294.1 33.2 292.3 33.3 289.5 33.3 C 291.3 30.5 296.6 22.5 297.4 21.3 C 297.8 20.6 298.2 19.9 298.3 19.2 C 296.9 19.2 295.7 19.3 293 19.3 H 290 C 288 19.3 286.8 19.2 286.2 18.9 C 286.2 21 286 23.3 285.8 24.7 L 286.7 24.5 C 286.9 23.7 287.1 22.8 287.4 21.9 C 287.8 20.8 288.3 20.5 289.8 20.4 C 291.2 20.3 292.7 20.3 294.2 20.3 C 293.3 22.1 289 29.1 285.2 33.7 L 285.6 34.4 C 286.2 34.4 287.3 34.3 289.3 34.3 C 293.1 34.3 297.1 34.4 298.4 34.5 C 298.5 32.9 298.8 30.2 299 28.7 L 298.1 28.5 C 297.3 32 296.5 32.9 295.1 33 Z M 309.9 32.5 C 309.9 31.8 309.8 30.6 309.8 28.4 V 24.3 C 309.8 21.7 309.9 19.7 309.9 18.9 C 308.3 19.3 306 19.4 304.3 19.5 L 304.3 20.4 C 306.2 20.3 306.5 20.4 306.5 20.9 C 306.5 21.4 306.6 22.6 306.6 24.5 V 28.4 C 306.6 30.4 306.5 31.9 306.5 32.5 C 306.5 33.1 306.2 33.4 304.1 33.5 L 304.1 34.5 C 305.2 34.5 306.2 34.4 307.9 34.4 C 309.6 34.4 310.9 34.5 311.9 34.5 L 311.9 33.5 C 310.3 33.4 309.9 33.3 309.9 32.5 Z M 332.9 32.5 V 23.2 C 332.9 22.4 332.8 21.6 332.4 21 C 331.9 19.9 330.7 18.9 328.4 18.9 C 325.9 18.9 324.2 20.4 322.9 21.6 C 322.9 21.1 322.8 19.7 322.7 19 C 321.1 19.3 319.3 19.5 317.6 19.5 L 317.5 20.4 C 319.3 20.4 319.6 20.5 319.6 21 C 319.7 21.9 319.7 23.4 319.7 25.3 V 28.4 C 319.7 30.1 319.6 31.4 319.6 32.4 C 319.6 33.2 319.3 33.3 317.5 33.4 V 34.4 C 318.5 34.4 319.7 34.3 321.2 34.3 C 322.5 34.3 324.2 34.4 325.1 34.4 L 325.2 33.4 C 323.4 33.3 323.1 33.2 323.1 32.5 C 323 31.7 323 30.3 323 28.8 V 24.7 C 323 23.9 323.1 23.4 323.4 22.9 C 324.2 21.5 325.5 20.7 327.2 20.7 C 328.4 20.7 329.1 21.2 329.6 22 C 329.9 22.6 330 23 330 27.4 C 330 30.2 329.9 31.8 329.9 32.5 C 329.8 33.2 329.5 33.3 327.9 33.4 L 327.9 34.4 C 328.7 34.4 329.9 34.3 331.5 34.3 C 333 34.3 334.3 34.4 335.4 34.4 L 335.5 33.4 C 333.1 33.4 332.9 33.3 332.9 32.5 Z M 352.5 29.8 L 353.4 30.3 C 352.3 33.5 350.1 34.8 347.1 34.8 C 344.4 34.8 342.7 34 341.5 32.4 C 340.6 31.2 340 29.2 340 27.1 C 340 22.7 342.5 18.8 347.4 18.8 C 352.5 18.8 353.4 22.8 353.4 24.9 C 353.4 25.6 353.2 26.1 352.7 26.3 C 352.1 26.5 350.4 26.7 348.1 26.8 C 346.9 26.8 345 26.8 343.5 26.8 C 343.4 28.7 343.9 30.4 344.6 31.4 C 345.4 32.6 346.5 33.2 348.1 33.2 C 350.3 33.2 351.6 32.2 352.5 29.8 Z M 343.6 25.7 H 346.5 C 348.2 25.7 349.1 25.6 349.6 25.5 C 350.1 25.4 350.3 25 350.3 24.3 C 350.3 22.4 349.5 19.9 347.2 19.9 C 344.8 19.9 343.7 22.8 343.6 25.7 Z');text-align:center;inline-size:200px;fill:#1a1a1a;fill-opacity:1;stroke-width:1.13186" /></svg>
