<svg width="203" height="67" viewBox="0 0 203 67" fill="none" xmlns="http://www.w3.org/2000/svg">
<path d="M202.653 65.3786C196.414 65.3786 190.175 65.3786 183.859 65.3786C183.859 65.075 183.859 64.811 183.859 64.5602C183.859 55.9142 183.885 47.2682 183.834 38.6222C183.834 37.6454 183.527 36.629 183.195 35.6918C182.811 34.5962 181.839 34.2794 180.804 34.2398C179.717 34.2002 178.797 34.5962 178.208 35.6126C177.684 36.5234 177.454 37.5266 177.454 38.5826C177.454 47.2286 177.454 55.8746 177.454 64.5206C177.454 64.7846 177.454 65.0354 177.454 65.339C171.19 65.339 164.976 65.339 158.661 65.339C158.661 65.1014 158.661 64.8506 158.661 64.5998C158.661 55.8878 158.673 47.1758 158.648 38.4638C158.648 37.289 158.443 36.1274 157.702 35.1638C156.615 33.7514 153.495 33.7118 152.664 36.3254C152.422 37.091 152.281 37.9358 152.268 38.741C152.243 47.321 152.255 55.901 152.255 64.481C152.255 64.745 152.255 65.009 152.255 65.3258C146.042 65.3258 139.867 65.3258 133.641 65.3258C133.641 49.7102 133.641 34.0814 133.641 18.4262C139.79 18.4262 145.914 18.4262 152.102 18.4262C152.102 20.4326 152.102 22.439 152.102 24.5378C152.818 23.627 153.483 22.8086 154.096 21.9638C154.94 20.8154 156.052 20.0102 157.216 19.2842C159.287 17.9774 161.563 17.4626 163.979 17.4494C166.242 17.4362 168.428 17.7266 170.474 18.7034C172.685 19.7594 174.386 21.4358 175.524 23.6798C175.626 23.891 175.741 24.1022 175.843 24.3134C175.843 24.3266 175.882 24.3266 175.83 24.3134C176.713 23.231 177.505 22.109 178.464 21.1454C180.254 19.3502 182.402 18.1886 184.882 17.7398C187.835 17.1986 190.725 17.357 193.576 18.3866C196.043 19.2842 198.012 20.8418 199.534 22.9934C201.017 25.0922 201.924 27.4682 202.231 30.0686C202.333 30.9266 202.397 31.7978 202.487 32.6558C202.5 32.7878 202.564 32.9198 202.615 33.0518C202.653 43.823 202.653 54.5942 202.653 65.3786Z" fill="white"/>
<path d="M54.8622 0.303223C54.8622 8.01202 54.8622 15.7208 54.8622 23.588C55.3608 22.9676 55.7827 22.4792 56.1918 21.9644C57.4703 20.3276 59.1195 19.232 60.9605 18.374C63.134 17.3576 65.448 17.3048 67.7237 17.5028C71.4824 17.8328 74.7681 19.3508 77.2868 22.3472C79.0255 24.4064 80.0099 26.8616 80.5597 29.5148C80.9304 31.2968 80.956 33.1052 80.9432 34.9136C80.9304 44.7872 80.9432 54.6608 80.9432 64.5476C80.9432 64.8116 80.9432 65.0624 80.9432 65.3528C74.6275 65.3528 68.3757 65.3528 62.0217 65.3528C62.0217 65.102 62.0217 64.8512 62.0217 64.5872C62.0217 55.9412 62.0345 47.2952 62.0089 38.6492C62.0089 37.844 61.8427 37.0124 61.587 36.2468C61.1523 34.9532 60.1679 34.28 58.8638 34.2404C57.5214 34.2008 56.3452 34.6496 55.7827 36.0092C55.4503 36.8276 55.169 37.7384 55.1562 38.6096C55.1051 47.2292 55.1307 55.8488 55.1307 64.4816C55.1307 64.7456 55.1307 65.0096 55.1307 65.3264C48.93 65.3264 42.7422 65.3264 36.4648 65.3264C36.4648 43.6652 36.4648 21.9776 36.4648 0.303223C42.5888 0.303223 48.7255 0.303223 54.8622 0.303223Z" fill="white"/>
<path d="M104.851 66.3032C104.327 66.2108 103.803 66.092 103.278 66.0392C100.888 65.8016 98.6119 65.1548 96.4002 64.2308C93.498 63.0164 90.9538 61.2212 88.8699 58.8188C86.6837 56.2976 85.1623 53.3672 84.2546 50.1068C83.6793 48.0344 83.398 45.9356 83.219 43.7972C82.8866 39.758 83.5259 35.9036 84.9578 32.1812C85.8527 29.8712 87.144 27.7856 88.7037 25.8584C90.8004 23.2844 93.3318 21.3176 96.234 19.8788C98.4713 18.77 100.862 18.0968 103.33 17.7008C105.426 17.3708 107.523 17.3576 109.607 17.5028C114.478 17.846 118.978 19.4432 122.852 22.5716C125.767 24.9212 127.979 27.878 129.449 31.4288C130.395 33.7124 131.073 36.0752 131.252 38.504C131.482 41.5796 131.418 44.6684 131.482 47.8232C121.292 47.8232 111.231 47.8232 101.079 47.8232C101.54 48.9056 102.204 49.6976 103.035 50.3312C105.426 52.1396 108.06 52.2188 110.732 51.2156C111.473 50.9384 112.062 50.252 112.726 49.7768C112.944 49.6316 113.187 49.4336 113.417 49.4336C119.272 49.4204 125.128 49.4204 130.996 49.4204C131.085 49.4204 131.162 49.4468 131.328 49.46C131.111 50.0408 130.919 50.6084 130.689 51.1496C129.564 53.8556 128.183 56.4296 126.317 58.6604C124.156 61.2344 121.561 63.2408 118.441 64.4552C116.344 65.2736 114.184 65.828 111.946 66.0392C111.358 66.092 110.77 66.2108 110.182 66.3032C108.431 66.3032 106.641 66.3032 104.851 66.3032ZM114.056 35.3888C112.982 33.0788 110.476 31.838 107.676 31.8776C105.043 31.9172 102.805 32.96 101.194 35.3888C105.554 35.3888 109.773 35.3888 114.056 35.3888Z" fill="white"/>
<path d="M0.654297 18.3871C2.98113 18.3871 5.29518 18.3871 7.62202 18.3739C7.66037 18.3739 7.69873 18.3475 7.81379 18.3079C7.81379 18.0967 7.81379 17.8723 7.81379 17.6347C7.81379 15.5623 7.81379 13.5031 7.81379 11.4307C7.81379 11.1139 7.83936 10.9027 8.18455 10.7179C10.3708 9.55627 12.557 8.35507 14.7304 7.16707C18.0416 5.35867 21.3529 3.56347 24.6642 1.75507C25.2011 1.46467 25.7253 1.16107 26.339 0.817871C26.339 6.71827 26.339 12.5131 26.339 18.3739C28.9982 18.3739 31.6063 18.3739 34.24 18.3739C34.24 23.8519 34.24 29.2507 34.24 34.7287C31.6319 34.7287 29.0238 34.7287 26.3518 34.7287C26.3518 35.0323 26.3518 35.2699 26.3518 35.5075C26.3518 37.9099 26.3262 40.2991 26.3646 42.7015C26.3773 43.5463 26.4285 44.4043 26.6458 45.2095C27.0805 46.8595 27.8987 47.4007 29.7653 47.5327C31.2356 47.6383 32.7186 47.5591 34.24 47.5591C34.24 53.5915 34.24 59.4523 34.24 65.3791C33.9971 65.3791 33.767 65.3791 33.5368 65.3791C30.6858 65.3791 27.822 65.4583 24.971 65.3527C22.2734 65.2471 19.5886 64.9567 16.9805 64.1119C12.9789 62.8183 10.3963 60.0991 9.24569 55.9807C8.77265 54.2911 8.45303 52.5487 8.21012 50.8063C7.50696 45.5923 7.90329 40.3519 7.81379 35.1115C7.81379 35.0191 7.80101 34.9399 7.78822 34.7551C5.41025 34.7551 3.03227 34.7551 0.654297 34.7551C0.654297 29.3035 0.654297 23.8387 0.654297 18.3871Z" fill="white"/>
</svg>